<?xml version="1.0" encoding="UTF-8" standalone="no"?><!DOCTYPE svg PUBLIC "-//W3C//DTD SVG 1.1//EN" "http://www.w3.org/Graphics/SVG/1.1/DTD/svg11.dtd"><svg width="100%" height="100%" viewBox="0 0 1024 1024" version="1.1" xmlns="http://www.w3.org/2000/svg" xmlns:xlink="http://www.w3.org/1999/xlink" xml:space="preserve" xmlns:serif="http://www.serif.com/" style="fill-rule:evenodd;clip-rule:evenodd;stroke-linecap:round;stroke-linejoin:round;stroke-miterlimit:1.5;"><rect id="Artboard1" x="0" y="0" width="1024" height="1024" style="fill:none;"/><clipPath id="_clip1"><rect id="Artboard11" serif:id="Artboard1" x="0" y="0" width="1024" height="1024"/></clipPath><g clip-path="url(#_clip1)"><g><path id="MAIN-GROUP" serif:id="MAIN GROUP" d="M160.337,613.554L187.616,602.608C182.096,582.832 178.338,562.325 176.521,541.265C141.806,545.041 109.977,548.144 103.821,548.744L176.399,539.806C175.648,530.636 175.265,521.362 175.265,512C175.265,503.278 175.597,494.633 176.25,486.077L117.571,483.038C142.638,483.763 161.687,484.843 176.258,485.974C180.664,428.437 199.558,374.927 229.293,329.089C223.876,318.674 232.401,232.918 247.34,179.406C262.614,124.692 294.252,58.911 323.385,38.811C356.24,16.142 352.464,51.98 413.657,189.876C444.772,180.376 477.794,175.265 512,175.265C545.723,175.265 578.294,180.233 609.022,189.476C670.03,51.911 666.294,16.164 699.116,38.811C728.249,58.911 759.887,124.692 775.162,179.406C789.548,230.936 797.985,312.366 793.754,327.627C823.826,373.464 843.018,427.066 847.646,484.749L887.343,483.038C873.085,484.046 859.865,484.753 847.686,485.253C848.381,494.078 848.735,502.998 848.735,512C848.735,518.917 848.526,525.785 848.114,532.599L910.404,540.486C903.578,540.127 880.166,538.96 847.924,535.532C846.513,555.928 843.283,575.826 838.394,595.066C846.827,598.539 854.203,601.568 860.523,604.149L838.323,595.345C801.195,740.938 669.087,848.735 512,848.735C358.003,848.735 228.012,745.137 187.977,603.892C177.821,607.428 168.353,610.711 160.337,613.554ZM160.337,613.554L135.619,623.473C136.474,622.25 146.126,618.594 160.337,613.554ZM860.523,604.149L887.34,614.784C883.921,613.616 874.987,610.056 860.523,604.149ZM219.715,968.444C219.715,978.21 216.982,997.465 211.516,1005.06C205.542,1002.51 198.964,1001.24 191.783,1001.24C183.393,1001.24 173.765,1003 162.897,1006.53C167.854,993.83 170.333,971.483 170.333,960.632C165.757,961.608 159.115,963.724 150.408,966.98C149.963,976.203 147.485,998.198 142.972,1011.82C135.981,1012.79 128.831,1013.28 121.522,1013.28C112.371,1013.28 103.187,1012.49 93.971,1010.92C94.035,1008.48 94.384,1005.44 95.02,1001.81C95.656,998.171 96.609,993.858 97.88,988.866C100.232,979.318 101.407,961.337 101.407,956.075C101.407,952.928 101.026,950.378 100.263,948.425C99.755,947.231 99.231,946.065 98.69,944.925C98.15,943.786 97.626,942.647 97.117,941.508C92.605,930.874 89.65,919.236 88.251,906.595C88.188,905.727 88.092,904.683 87.965,903.462C87.838,902.242 87.711,900.79 87.584,899.108C87.393,897.481 87.298,896.423 87.298,895.935C87.298,894.416 87.679,892.869 88.442,891.296C91.429,885.491 98.674,881.774 110.178,880.147C122.126,878.519 133.121,875.562 143.163,871.276C145.133,870.246 147.103,869.242 149.074,868.265C151.044,867.289 153.046,866.312 155.079,865.336C159.338,863.328 163.818,862.325 168.521,862.325C175.131,862.325 181.36,864.006 187.207,867.37C192.927,870.788 197.153,875.047 199.886,880.147C202.174,884.487 203.318,889.967 203.318,896.586C203.318,904.452 206.051,916.415 211.516,932.474C216.982,948.533 219.715,960.523 219.715,968.444ZM168.426,944.274C166.964,940.477 165.518,936.693 164.088,932.922C162.658,929.151 161.213,925.367 159.751,921.569C156.446,912.292 154.793,904.615 154.793,898.539C154.793,897.996 154.825,897.345 154.889,896.586C154.952,895.826 155.048,894.931 155.175,893.9C155.302,892.815 155.397,891.893 155.461,891.133C155.524,890.374 155.556,889.723 155.556,889.18C155.556,888.203 155.143,887.213 154.317,886.21C153.491,885.206 152.506,884.704 151.362,884.704C151.679,884.704 151.441,884.786 150.647,884.948L146.69,885.762C141.669,888.638 138.492,891.16 137.157,893.33C135.822,895.392 135.155,898.891 135.155,903.828C135.155,910.936 136.712,918.884 139.826,927.673C140.271,929.083 143.417,936.733 149.264,950.622C153.459,948.994 159.846,946.879 168.426,944.274ZM361.951,964.864C361.951,969.421 360.267,983.495 356.899,985.937C354.293,987.835 350.448,989.436 345.363,990.738C343.266,991.172 341.169,991.633 339.071,992.121C336.974,992.61 334.877,993.071 332.779,993.505C315.175,997.791 300.875,1003.84 289.88,1011.65C283.079,1016.53 275.707,1018.98 267.763,1018.98C257.912,1018.98 249.459,1015.23 242.404,1007.75C235.794,1000.64 232.49,992.8 232.49,984.228L232.49,982.193C232.49,981.325 232.521,969.774 232.585,968.689C232.648,967.603 232.696,966.64 232.728,965.8C232.76,964.959 232.776,964.267 232.776,963.724C232.776,953.362 231.377,943.705 228.581,934.753C227.373,931.009 225.848,925.177 224.005,917.256C223.242,912.373 222.861,906.378 222.861,899.271C222.861,894.443 225.498,890.672 230.774,887.959C231.091,887.797 232.537,887.281 235.111,886.413C237.685,885.545 241.355,884.324 246.122,882.751C250.19,881.178 255.242,879.265 261.28,877.014C267.318,874.762 274.436,872.117 282.634,869.079C283.461,868.808 284.446,868.482 285.59,868.103C286.734,867.723 288.1,867.235 289.689,866.638C290.579,866.204 291.707,865.661 293.073,865.01C294.44,864.359 296.045,863.6 297.888,862.731C302.464,860.887 307.04,859.965 311.616,859.965C323.246,859.965 331.159,865.064 335.353,875.264C336.688,878.519 337.355,884.487 337.355,893.168C337.355,894.144 337.387,895.121 337.451,896.097C337.514,897.074 337.61,898.023 337.737,898.946C333.923,898.078 329.951,897.644 325.82,897.644C313.236,897.644 301.193,901.306 289.689,908.63C289.562,907.708 289.451,906.785 289.355,905.863C289.26,904.941 289.212,904.018 289.212,903.096C289.212,902.337 289.26,901.428 289.355,900.37C289.451,899.312 289.626,898.078 289.88,896.667C290.134,895.256 290.309,894.022 290.404,892.964C290.499,891.906 290.547,891.025 290.547,890.319C290.547,888.963 289.943,887.444 288.736,885.762C287.782,885.491 286.893,885.355 286.066,885.355C282.634,885.355 278.98,887.173 275.103,890.808C271.226,894.443 269.288,900.139 269.288,907.897C269.288,916.47 271.036,924.174 274.531,931.009C274.976,931.986 277.169,935.187 281.109,940.612C285.304,946.472 287.401,954.718 287.401,965.352C287.401,966.111 287.353,967.034 287.258,968.119C287.163,969.204 287.052,981.054 286.924,982.519C286.797,983.929 286.702,985.177 286.638,986.262C286.575,987.347 286.543,988.242 286.543,988.948C286.543,990.846 287.655,992.257 289.88,993.179C291.214,993.179 293.089,992.528 295.504,991.226C301.288,988.08 305.101,974.005 306.944,970.153C308.342,967.278 309.042,962.639 309.042,956.237C309.042,955.315 308.994,954.352 308.899,953.348C308.803,952.345 308.692,951.327 308.565,950.297C313.649,948.777 319.02,948.018 324.676,948.018C336.624,948.018 348.763,951.056 361.093,957.133C361.665,958.923 361.951,961.5 361.951,964.864ZM418.865,965.515C418.865,977.233 418.102,998.388 416.577,1007.83L412.382,1004.78C411.302,1003.99 410.539,1003.46 410.094,1003.19C407.679,1001.83 405.105,1000.77 402.372,1000.01C399.194,1000.5 395.953,1003.27 392.648,1008.32C389.47,1013.04 385.594,1015.4 381.018,1015.4C376.505,1015.4 372.025,1013.96 367.576,1011.08C371.135,1001.48 372.914,980.624 372.914,969.665C372.914,966.41 372.755,963.1 372.438,959.737C372.12,956.373 371.643,952.955 371.008,949.483C370.499,947.584 369.927,945.237 369.292,942.443C368.656,939.649 367.925,936.381 367.099,932.637C365.447,924.933 364.62,913.54 364.62,898.457C364.62,893.412 364.859,888.448 365.335,883.565C365.812,878.682 366.495,873.826 367.385,868.998C369.165,870.191 371.262,870.788 373.677,870.788C376.283,870.788 379.683,870.001 383.878,868.428C389.534,866.258 392.839,865.037 393.792,864.766C399.639,860.263 404.66,858.011 408.855,858.011C412.096,858.011 414.67,859.395 416.577,862.162C416.132,865.905 415.798,869.852 415.576,874.003C415.353,878.153 415.242,882.534 415.242,887.146C415.242,891.54 415.385,896.993 415.671,903.503C415.957,910.013 416.418,917.636 417.053,926.371C417.689,935.106 418.15,942.715 418.436,949.198C418.722,955.681 418.865,961.12 418.865,965.515ZM562.34,961.202C562.34,967.386 561.609,982.139 560.148,984.309C556.652,989.409 548.708,993.478 536.314,996.516C528.179,998.415 520.696,1000.48 513.864,1002.7C507.031,1004.93 500.724,1007.28 494.94,1009.78C490.936,1010 483.818,1011.06 473.586,1012.96C464.624,1014.58 457.506,1015.4 452.231,1015.4C445.939,1015.4 440.314,1014.47 435.357,1012.63C436.12,1009.21 436.883,1005.82 437.645,1002.46C438.408,999.093 439.139,995.702 439.838,992.284C441.427,984.526 442.221,967.088 442.221,961.12C442.221,955.261 441.649,950.378 440.505,946.472C439.997,944.898 439.25,942.972 438.265,940.694C437.28,938.415 435.993,935.784 434.404,932.8C431.29,926.94 429.733,919.128 429.733,909.362C429.733,906.487 430.209,901.658 431.163,894.877C432.116,888.095 433.578,879.279 435.548,868.428C445.018,872.768 454.9,874.939 465.196,874.939C476.7,874.939 486.551,872.172 494.749,866.638C498.563,865.607 502.853,865.092 507.619,865.092C518.741,865.092 527.671,867.316 534.408,871.765C541.907,876.702 545.657,883.755 545.657,892.924C545.657,893.9 545.562,895.365 545.371,897.318C545.18,899.217 545.085,900.655 545.085,901.631C545.085,908.63 547.945,918.585 553.665,931.498C559.448,944.356 562.34,954.257 562.34,961.202ZM512.958,958.842C512.958,951.3 511.528,944.22 508.668,937.601C507.397,935.594 505.935,933.044 504.283,929.952C502.63,926.859 500.819,923.197 498.849,918.965C497.641,914.896 497.037,910.285 497.037,905.131C497.037,904.208 497.101,903.069 497.228,901.713C497.355,900.356 497.546,898.783 497.8,896.993C498.054,895.202 498.245,893.642 498.372,892.313C498.499,890.984 498.563,889.858 498.563,888.936C498.563,887.525 497.8,886.033 496.275,884.46C495.83,884.243 495.321,884.134 494.749,884.134C493.923,884.134 491.699,884.84 488.076,886.25C483.945,887.824 481.466,888.719 480.64,888.936C478.543,896.857 477.494,903.964 477.494,910.258C477.494,916.171 478.416,921.786 480.259,927.103C481.149,929.599 483.182,933.261 486.36,938.09C489.22,942.538 491.063,946.255 491.889,949.239C492.843,952.928 493.319,956.888 493.319,961.12C493.319,967.305 492.175,985.313 489.887,993.993C498.722,992.637 504.823,990.087 508.191,986.343C511.369,982.817 512.958,966.6 512.958,958.842ZM703.718,964.864C703.718,969.421 702.034,983.495 698.666,985.937C696.06,987.835 692.215,989.436 687.13,990.738C685.033,991.172 682.936,991.633 680.839,992.121C678.741,992.61 676.644,993.071 674.547,993.505C656.942,997.791 642.642,1003.84 631.647,1011.65C624.847,1016.53 617.474,1018.98 609.53,1018.98C599.679,1018.98 591.226,1015.23 584.171,1007.75C577.562,1000.64 574.257,992.8 574.257,984.228L574.257,982.193C574.257,981.325 574.289,969.774 574.352,968.689C574.416,967.603 574.463,966.64 574.495,965.8C574.527,964.959 574.543,964.267 574.543,963.724C574.543,953.362 573.145,943.705 570.348,934.753C569.141,931.009 567.615,925.177 565.772,917.256C565.009,912.373 564.628,906.378 564.628,899.271C564.628,894.443 567.266,890.672 572.541,887.959C572.859,887.797 574.304,887.281 576.878,886.413C579.452,885.545 583.123,884.324 587.889,882.751C591.957,881.178 597.009,879.265 603.047,877.014C609.085,874.762 616.203,872.117 624.402,869.079C625.228,868.808 626.213,868.482 627.357,868.103C628.501,867.723 629.867,867.235 631.456,866.638C632.346,866.204 633.474,865.661 634.841,865.01C636.207,864.359 637.812,863.6 639.655,862.731C644.231,860.887 648.807,859.965 653.383,859.965C665.013,859.965 672.926,865.064 677.121,875.264C678.455,878.519 679.123,884.487 679.123,893.168C679.123,894.144 679.154,895.121 679.218,896.097C679.281,897.074 679.377,898.023 679.504,898.946C675.691,898.078 671.718,897.644 667.587,897.644C655.003,897.644 642.96,901.306 631.456,908.63C631.329,907.708 631.218,906.785 631.123,905.863C631.027,904.941 630.98,904.018 630.98,903.096C630.98,902.337 631.027,901.428 631.123,900.37C631.218,899.312 631.393,898.078 631.647,896.667C631.901,895.256 632.076,894.022 632.171,892.964C632.267,891.906 632.314,891.025 632.314,890.319C632.314,888.963 631.71,887.444 630.503,885.762C629.55,885.491 628.66,885.355 627.834,885.355C624.402,885.355 620.747,887.173 616.87,890.808C612.994,894.443 611.055,900.139 611.055,907.897C611.055,916.47 612.803,924.174 616.298,931.009C616.743,931.986 618.936,935.187 622.876,940.612C627.071,946.472 629.168,954.718 629.168,965.352C629.168,966.111 629.121,967.034 629.025,968.119C628.93,969.204 628.819,981.054 628.692,982.519C628.565,983.929 628.469,985.177 628.406,986.262C628.342,987.347 628.31,988.242 628.31,988.948C628.31,990.846 629.423,992.257 631.647,993.179C632.982,993.179 634.856,992.528 637.272,991.226C643.055,988.08 646.868,974.005 648.711,970.153C650.11,967.278 650.809,962.639 650.809,956.237C650.809,955.315 650.761,954.352 650.666,953.348C650.57,952.345 650.459,951.327 650.332,950.297C655.417,948.777 660.787,948.018 666.443,948.018C678.392,948.018 690.531,951.056 702.86,957.133C703.432,958.923 703.718,961.5 703.718,964.864ZM834.896,968.444C834.896,978.21 832.163,997.465 826.697,1005.06C820.723,1002.51 814.145,1001.24 806.963,1001.24C798.574,1001.24 788.946,1003 778.078,1006.53C783.035,993.83 785.514,971.483 785.514,960.632C780.938,961.608 774.296,963.724 765.589,966.98C765.144,976.203 762.666,998.198 758.153,1011.82C751.162,1012.79 744.012,1013.28 736.703,1013.28C727.551,1013.28 718.368,1012.49 709.152,1010.92C709.216,1008.48 709.565,1005.44 710.201,1001.81C710.837,998.171 711.79,993.858 713.061,988.866C715.412,979.318 716.588,961.337 716.588,956.075C716.588,952.928 716.207,950.378 715.444,948.425C714.936,947.231 714.411,946.065 713.871,944.925C713.331,943.786 712.807,942.647 712.298,941.508C707.786,930.874 704.831,919.236 703.432,906.595C703.369,905.727 703.273,904.683 703.146,903.462C703.019,902.242 702.892,900.79 702.765,899.108C702.574,897.481 702.479,896.423 702.479,895.935C702.479,894.416 702.86,892.869 703.623,891.296C706.61,885.491 713.855,881.774 725.359,880.147C737.307,878.519 748.302,875.562 758.344,871.276C760.314,870.246 762.284,869.242 764.255,868.265C766.225,867.289 768.227,866.312 770.26,865.336C774.519,863.328 778.999,862.325 783.702,862.325C790.312,862.325 796.54,864.006 802.388,867.37C808.107,870.788 812.334,875.047 815.067,880.147C817.355,884.487 818.499,889.967 818.499,896.586C818.499,904.452 821.232,916.415 826.697,932.474C832.163,948.533 834.896,960.523 834.896,968.444ZM783.607,944.274C782.145,940.477 780.699,936.693 779.269,932.922C777.839,929.151 776.394,925.367 774.932,921.569C771.627,912.292 769.974,904.615 769.974,898.539C769.974,897.996 770.006,897.345 770.07,896.586C770.133,895.826 770.229,894.931 770.356,893.9C770.483,892.815 770.578,891.893 770.642,891.133C770.705,890.374 770.737,889.723 770.737,889.18C770.737,888.203 770.324,887.213 769.498,886.21C768.672,885.206 767.686,884.704 766.542,884.704C766.86,884.704 766.622,884.786 765.828,884.948L761.871,885.762C756.85,888.638 753.673,891.16 752.338,893.33C751.003,895.392 750.336,898.891 750.336,903.828C750.336,910.936 751.893,918.884 755.007,927.673C755.452,929.083 758.598,936.733 764.445,950.622C768.64,948.994 775.027,946.879 783.607,944.274ZM958.733,865.987C954.538,869.025 951.424,873.067 949.39,878.112C944.56,876.376 939.253,875.508 933.47,875.508C927.941,875.508 922.03,876.268 915.738,877.787C914.022,881.964 913.164,886.359 913.164,890.97C913.164,898.403 915.833,908.494 921.172,921.244C921.871,922.817 922.618,924.77 923.412,927.103C924.207,929.436 925.112,932.23 926.129,935.485C926.638,938.09 927.035,941.209 927.321,944.844C927.607,948.479 927.75,952.657 927.75,957.377C927.75,969.15 926.701,991.091 924.604,1002.05C922.761,1002.48 920.822,1002.99 918.789,1003.56C916.755,1004.12 914.658,1004.71 912.497,1005.31C909.192,1006.07 904.552,1007.37 898.578,1009.21C898.26,1009.32 897.641,1009.59 896.719,1010.02C895.798,1010.46 894.574,1011.06 893.049,1011.82C885.804,1015.5 879.766,1017.73 874.936,1018.49C875.444,1011.54 875.841,1004.95 876.127,998.713C876.413,992.474 876.556,975.931 876.556,970.235C876.556,968.065 876.509,965.542 876.413,962.666C876.318,959.791 876.207,956.509 876.08,952.819C876.08,951.897 876.032,950.758 875.937,949.401C875.841,948.045 875.73,946.445 875.603,944.6C875.285,942.755 873.855,937.954 871.313,930.196C867.182,917.717 865.116,907.626 865.116,899.922C865.116,894.822 865.815,890.211 867.214,886.088C865.815,886.196 864.417,886.277 863.019,886.332C861.621,886.386 860.191,886.413 858.729,886.413C849.386,886.413 841.22,885.084 834.229,882.425C835.754,876.837 838.01,871.9 840.997,867.614C846.399,868.537 852.024,868.998 857.871,868.998C861.684,868.998 865.99,868.781 870.789,868.347C875.587,867.913 880.973,867.262 886.948,866.394C890.761,865.96 896.354,865.146 903.726,863.952C906.141,863.41 908.588,862.894 911.067,862.406C913.545,861.918 915.992,861.402 918.407,860.86C921.267,860.317 923.937,859.91 926.415,859.639C928.894,859.368 931.245,859.232 933.47,859.232C943.511,859.232 951.933,861.484 958.733,865.987Z" style="fill:#fff;stroke:#fff;stroke-width:23.46px;"/><g id="MAIN-GROUP1" serif:id="MAIN GROUP"><circle id="HEAD" cx="512" cy="512" r="336.735" style="fill:#fd0;stroke:#000;stroke-width:8.55px;"/><g id="EYES"><path d="M423.863,404.301C423.863,437.221 408.791,463.948 390.226,463.948C371.662,463.948 356.59,437.221 356.59,404.301C356.59,371.381 371.662,344.654 390.226,344.654C408.791,344.654 423.863,371.381 423.863,404.301Z" style="stroke:#000;stroke-width:12.92px;"/><path d="M671.136,404.301C671.136,437.221 656.064,463.948 637.5,463.948C618.935,463.948 603.863,437.221 603.863,404.301C603.863,371.381 618.935,344.654 637.5,344.654C656.064,344.654 671.136,371.381 671.136,404.301Z" style="stroke:#000;stroke-width:12.92px;"/></g><g id="EARS"><path d="M415.984,195.099C311.562,229.293 243.317,302.809 235.648,322.228C220.176,361.407 228.838,245.679 247.34,179.406C262.614,124.692 294.252,58.911 323.385,38.811C356.651,15.859 352.364,52.886 415.984,195.099Z" style="fill:#fd0;stroke:#000;stroke-width:8.55px;"/><path d="M606.517,195.099C710.939,229.293 779.185,302.809 786.854,322.228C802.326,361.407 793.663,245.679 775.162,179.406C759.887,124.692 728.249,58.911 699.116,38.811C665.851,15.859 670.138,52.886 606.517,195.099Z" style="fill:#fd0;stroke:#000;stroke-width:8.55px;"/></g><g id="left-whiskers" serif:id="left whiskers"><path d="M297.253,492.344C260.415,492.344 260.882,487.523 224.321,490.934C217.228,491.596 199.702,485.413 117.571,483.038" style="stroke:#000;stroke-width:4.08px;"/><path d="M275.57,527.594C260.504,533.469 117.624,547.398 103.821,548.744" style="stroke:#000;stroke-width:4.08px;"/><path d="M297.253,558.614C286.707,573.7 139.079,618.523 135.619,623.473" style="stroke:#000;stroke-width:4.08px;"/></g><g id="right-whiskers" serif:id="right whiskers"><path d="M742.972,489.26C751.802,484.111 800.17,489.199 887.343,483.038" style="stroke:#000;stroke-width:4.08px;"/><path d="M742.972,519.286C823.304,536.141 897.321,539.799 910.404,540.486" style="stroke:#000;stroke-width:4.08px;"/><path d="M720.237,548.515C793.307,579.809 778.028,570.138 811.009,583.765C855.568,602.175 880.985,612.613 887.34,614.784" style="stroke:#000;stroke-width:4.08px;"/></g><g id="THE-MOUTH" serif:id="THE MOUTH"><path d="M290.07,614.784C429.191,779.484 576.801,782.353 733.93,614.784" style="fill:none;stroke:#000;stroke-width:11.25px;"/><path d="M303.38,604.172C291.179,614.513 276.76,616.372 276.76,616.372" style="fill:none;stroke:#000;stroke-width:10.31px;"/><path d="M722.425,604.172C734.626,614.513 749.045,616.372 749.045,616.372" style="fill:none;stroke:#000;stroke-width:10.31px;"/></g><g id="text-curves" serif:id="text curves"><path d="M219.715,968.444C219.715,978.21 216.982,997.465 211.516,1005.06C205.542,1002.51 198.964,1001.24 191.783,1001.24C183.393,1001.24 173.765,1003 162.897,1006.53C167.854,993.83 170.333,971.483 170.333,960.632C165.757,961.608 159.115,963.724 150.408,966.98C149.963,976.203 147.485,998.198 142.972,1011.82C135.981,1012.79 128.831,1013.28 121.522,1013.28C112.371,1013.28 103.187,1012.49 93.971,1010.92C94.035,1008.48 94.384,1005.44 95.02,1001.81C95.656,998.171 96.609,993.858 97.88,988.866C100.232,979.318 101.407,961.337 101.407,956.075C101.407,952.928 101.026,950.378 100.263,948.425C99.755,947.231 99.231,946.065 98.69,944.925C98.15,943.786 97.626,942.647 97.117,941.508C92.605,930.874 89.65,919.236 88.251,906.595C88.188,905.727 88.092,904.683 87.965,903.462C87.838,902.242 87.711,900.79 87.584,899.108C87.393,897.481 87.298,896.423 87.298,895.935C87.298,894.416 87.679,892.869 88.442,891.296C91.429,885.491 98.674,881.774 110.178,880.147C122.126,878.519 133.121,875.562 143.163,871.276C145.133,870.246 147.103,869.242 149.074,868.265C151.044,867.289 153.046,866.312 155.079,865.336C159.338,863.328 163.818,862.325 168.521,862.325C175.131,862.325 181.36,864.006 187.207,867.37C192.927,870.788 197.153,875.047 199.886,880.147C202.174,884.487 203.318,889.967 203.318,896.586C203.318,904.452 206.051,916.415 211.516,932.474C216.982,948.533 219.715,960.523 219.715,968.444ZM168.426,944.274C166.964,940.477 165.518,936.693 164.088,932.922C162.658,929.151 161.213,925.367 159.751,921.569C156.446,912.292 154.793,904.615 154.793,898.539C154.793,897.996 154.825,897.345 154.889,896.586C154.952,895.826 155.048,894.931 155.175,893.9C155.302,892.815 155.397,891.893 155.461,891.133C155.524,890.374 155.556,889.723 155.556,889.18C155.556,888.203 155.143,887.213 154.317,886.21C153.491,885.206 152.506,884.704 151.362,884.704C151.679,884.704 151.441,884.786 150.647,884.948C149.852,885.111 148.533,885.382 146.69,885.762C141.669,888.638 138.492,891.16 137.157,893.33C135.822,895.392 135.155,898.891 135.155,903.828C135.155,910.936 136.712,918.884 139.826,927.673C140.271,929.083 143.417,936.733 149.264,950.622C153.459,948.994 159.846,946.879 168.426,944.274Z" style="fill-rule:nonzero;"/><path d="M219.715,968.444C219.715,978.21 216.982,997.465 211.516,1005.06C205.542,1002.51 198.964,1001.24 191.783,1001.24C183.393,1001.24 173.765,1003 162.897,1006.53C167.854,993.83 170.333,971.483 170.333,960.632C165.757,961.608 159.115,963.724 150.408,966.98C149.963,976.203 147.485,998.198 142.972,1011.82C135.981,1012.79 128.831,1013.28 121.522,1013.28C112.371,1013.28 103.187,1012.49 93.971,1010.92C94.035,1008.48 94.384,1005.44 95.02,1001.81C95.656,998.171 96.609,993.858 97.88,988.866C100.232,979.318 101.407,961.337 101.407,956.075C101.407,952.928 101.026,950.378 100.263,948.425C99.755,947.231 99.231,946.065 98.69,944.925C98.15,943.786 97.626,942.647 97.117,941.508C92.605,930.874 89.65,919.236 88.251,906.595C88.188,905.727 88.092,904.683 87.965,903.462C87.838,902.242 87.711,900.79 87.584,899.108C87.393,897.481 87.298,896.423 87.298,895.935C87.298,894.416 87.679,892.869 88.442,891.296C91.429,885.491 98.674,881.774 110.178,880.147C122.126,878.519 133.121,875.562 143.163,871.276C145.133,870.246 147.103,869.242 149.074,868.265C151.044,867.289 153.046,866.312 155.079,865.336C159.338,863.328 163.818,862.325 168.521,862.325C175.131,862.325 181.36,864.006 187.207,867.37C192.927,870.788 197.153,875.047 199.886,880.147C202.174,884.487 203.318,889.967 203.318,896.586C203.318,904.452 206.051,916.415 211.516,932.474C216.982,948.533 219.715,960.523 219.715,968.444ZM168.426,944.274C166.964,940.477 165.518,936.693 164.088,932.922C162.658,929.151 161.213,925.367 159.751,921.569C156.446,912.292 154.793,904.615 154.793,898.539C154.793,897.996 154.825,897.345 154.889,896.586C154.952,895.826 155.048,894.931 155.175,893.9C155.302,892.815 155.397,891.893 155.461,891.133C155.524,890.374 155.556,889.723 155.556,889.18C155.556,888.203 155.143,887.213 154.317,886.21C153.491,885.206 152.506,884.704 151.362,884.704C151.679,884.704 151.441,884.786 150.647,884.948C149.852,885.111 148.533,885.382 146.69,885.762C141.669,888.638 138.492,891.16 137.157,893.33C135.822,895.392 135.155,898.891 135.155,903.828C135.155,910.936 136.712,918.884 139.826,927.673C140.271,929.083 143.417,936.733 149.264,950.622C153.459,948.994 159.846,946.879 168.426,944.274Z" style="fill-rule:nonzero;"/><path d="M361.951,964.864C361.951,969.421 360.267,983.495 356.899,985.937C354.293,987.835 350.448,989.436 345.363,990.738C343.266,991.172 341.169,991.633 339.071,992.121C336.974,992.61 334.877,993.071 332.779,993.505C315.175,997.791 300.875,1003.84 289.88,1011.65C283.079,1016.53 275.707,1018.98 267.763,1018.98C257.912,1018.98 249.459,1015.23 242.404,1007.75C235.794,1000.64 232.49,992.8 232.49,984.228L232.49,982.193C232.49,981.325 232.521,969.774 232.585,968.689C232.648,967.603 232.696,966.64 232.728,965.8C232.76,964.959 232.776,964.267 232.776,963.724C232.776,953.362 231.377,943.705 228.581,934.753C227.373,931.009 225.848,925.177 224.005,917.256C223.242,912.373 222.861,906.378 222.861,899.271C222.861,894.443 225.498,890.672 230.774,887.959C231.091,887.797 232.537,887.281 235.111,886.413C237.685,885.545 241.355,884.324 246.122,882.751C250.19,881.178 255.242,879.265 261.28,877.014C267.318,874.762 274.436,872.117 282.634,869.079C283.461,868.808 284.446,868.482 285.59,868.103C286.734,867.723 288.1,867.235 289.689,866.638C290.579,866.204 291.707,865.661 293.073,865.01C294.44,864.359 296.045,863.6 297.888,862.731C302.464,860.887 307.04,859.965 311.616,859.965C323.246,859.965 331.159,865.064 335.353,875.264C336.688,878.519 337.355,884.487 337.355,893.168C337.355,894.144 337.387,895.121 337.451,896.097C337.514,897.074 337.61,898.023 337.737,898.946C333.923,898.078 329.951,897.644 325.82,897.644C313.236,897.644 301.193,901.306 289.689,908.63C289.562,907.708 289.451,906.785 289.355,905.863C289.26,904.941 289.212,904.018 289.212,903.096C289.212,902.337 289.26,901.428 289.355,900.37C289.451,899.312 289.626,898.078 289.88,896.667C290.134,895.256 290.309,894.022 290.404,892.964C290.499,891.906 290.547,891.025 290.547,890.319C290.547,888.963 289.943,887.444 288.736,885.762C287.782,885.491 286.893,885.355 286.066,885.355C282.634,885.355 278.98,887.173 275.103,890.808C271.226,894.443 269.288,900.139 269.288,907.897C269.288,916.47 271.036,924.174 274.531,931.009C274.976,931.986 277.169,935.187 281.109,940.612C285.304,946.472 287.401,954.718 287.401,965.352C287.401,966.111 287.353,967.034 287.258,968.119C287.163,969.204 287.052,981.054 286.924,982.519C286.797,983.929 286.702,985.177 286.638,986.262C286.575,987.347 286.543,988.242 286.543,988.948C286.543,990.846 287.655,992.257 289.88,993.179C291.214,993.179 293.089,992.528 295.504,991.226C301.288,988.08 305.101,974.005 306.944,970.153C308.342,967.278 309.042,962.639 309.042,956.237C309.042,955.315 308.994,954.352 308.899,953.348C308.803,952.345 308.692,951.327 308.565,950.297C313.649,948.777 319.02,948.018 324.676,948.018C336.624,948.018 348.763,951.056 361.093,957.133C361.665,958.923 361.951,961.5 361.951,964.864Z" style="fill-rule:nonzero;"/><path d="M361.951,964.864C361.951,969.421 360.267,983.495 356.899,985.937C354.293,987.835 350.448,989.436 345.363,990.738C343.266,991.172 341.169,991.633 339.071,992.121C336.974,992.61 334.877,993.071 332.779,993.505C315.175,997.791 300.875,1003.84 289.88,1011.65C283.079,1016.53 275.707,1018.98 267.763,1018.98C257.912,1018.98 249.459,1015.23 242.404,1007.75C235.794,1000.64 232.49,992.8 232.49,984.228L232.49,982.193C232.49,981.325 232.521,969.774 232.585,968.689C232.648,967.603 232.696,966.64 232.728,965.8C232.76,964.959 232.776,964.267 232.776,963.724C232.776,953.362 231.377,943.705 228.581,934.753C227.373,931.009 225.848,925.177 224.005,917.256C223.242,912.373 222.861,906.378 222.861,899.271C222.861,894.443 225.498,890.672 230.774,887.959C231.091,887.797 232.537,887.281 235.111,886.413C237.685,885.545 241.355,884.324 246.122,882.751C250.19,881.178 255.242,879.265 261.28,877.014C267.318,874.762 274.436,872.117 282.634,869.079C283.461,868.808 284.446,868.482 285.59,868.103C286.734,867.723 288.1,867.235 289.689,866.638C290.579,866.204 291.707,865.661 293.073,865.01C294.44,864.359 296.045,863.6 297.888,862.731C302.464,860.887 307.04,859.965 311.616,859.965C323.246,859.965 331.159,865.064 335.353,875.264C336.688,878.519 337.355,884.487 337.355,893.168C337.355,894.144 337.387,895.121 337.451,896.097C337.514,897.074 337.61,898.023 337.737,898.946C333.923,898.078 329.951,897.644 325.82,897.644C313.236,897.644 301.193,901.306 289.689,908.63C289.562,907.708 289.451,906.785 289.355,905.863C289.26,904.941 289.212,904.018 289.212,903.096C289.212,902.337 289.26,901.428 289.355,900.37C289.451,899.312 289.626,898.078 289.88,896.667C290.134,895.256 290.309,894.022 290.404,892.964C290.499,891.906 290.547,891.025 290.547,890.319C290.547,888.963 289.943,887.444 288.736,885.762C287.782,885.491 286.893,885.355 286.066,885.355C282.634,885.355 278.98,887.173 275.103,890.808C271.226,894.443 269.288,900.139 269.288,907.897C269.288,916.47 271.036,924.174 274.531,931.009C274.976,931.986 277.169,935.187 281.109,940.612C285.304,946.472 287.401,954.718 287.401,965.352C287.401,966.111 287.353,967.034 287.258,968.119C287.163,969.204 287.052,981.054 286.924,982.519C286.797,983.929 286.702,985.177 286.638,986.262C286.575,987.347 286.543,988.242 286.543,988.948C286.543,990.846 287.655,992.257 289.88,993.179C291.214,993.179 293.089,992.528 295.504,991.226C301.288,988.08 305.101,974.005 306.944,970.153C308.342,967.278 309.042,962.639 309.042,956.237C309.042,955.315 308.994,954.352 308.899,953.348C308.803,952.345 308.692,951.327 308.565,950.297C313.649,948.777 319.02,948.018 324.676,948.018C336.624,948.018 348.763,951.056 361.093,957.133C361.665,958.923 361.951,961.5 361.951,964.864Z" style="fill-rule:nonzero;"/><path d="M418.865,965.515C418.865,977.233 418.102,998.388 416.577,1007.83C414.861,1006.58 413.462,1005.56 412.382,1004.78C411.302,1003.99 410.539,1003.46 410.094,1003.19C407.679,1001.83 405.105,1000.77 402.372,1000.01C399.194,1000.5 395.953,1003.27 392.648,1008.32C389.47,1013.04 385.594,1015.4 381.018,1015.4C376.505,1015.4 372.025,1013.96 367.576,1011.08C371.135,1001.48 372.914,980.624 372.914,969.665C372.914,966.41 372.755,963.1 372.438,959.737C372.12,956.373 371.643,952.955 371.008,949.483C370.499,947.584 369.927,945.237 369.292,942.443C368.656,939.649 367.925,936.381 367.099,932.637C365.447,924.933 364.62,913.54 364.62,898.457C364.62,893.412 364.859,888.448 365.335,883.565C365.812,878.682 366.495,873.826 367.385,868.998C369.165,870.191 371.262,870.788 373.677,870.788C376.283,870.788 379.683,870.001 383.878,868.428C389.534,866.258 392.839,865.037 393.792,864.766C399.639,860.263 404.66,858.011 408.855,858.011C412.096,858.011 414.67,859.395 416.577,862.162C416.132,865.905 415.798,869.852 415.576,874.003C415.353,878.153 415.242,882.534 415.242,887.146C415.242,891.54 415.385,896.993 415.671,903.503C415.957,910.013 416.418,917.636 417.053,926.371C417.689,935.106 418.15,942.715 418.436,949.198C418.722,955.681 418.865,961.12 418.865,965.515Z" style="fill-rule:nonzero;"/><path d="M418.865,965.515C418.865,977.233 418.102,998.388 416.577,1007.83C414.861,1006.58 413.462,1005.56 412.382,1004.78C411.302,1003.99 410.539,1003.46 410.094,1003.19C407.679,1001.83 405.105,1000.77 402.372,1000.01C399.194,1000.5 395.953,1003.27 392.648,1008.32C389.47,1013.04 385.594,1015.4 381.018,1015.4C376.505,1015.4 372.025,1013.96 367.576,1011.08C371.135,1001.48 372.914,980.624 372.914,969.665C372.914,966.41 372.755,963.1 372.438,959.737C372.12,956.373 371.643,952.955 371.008,949.483C370.499,947.584 369.927,945.237 369.292,942.443C368.656,939.649 367.925,936.381 367.099,932.637C365.447,924.933 364.62,913.54 364.62,898.457C364.62,893.412 364.859,888.448 365.335,883.565C365.812,878.682 366.495,873.826 367.385,868.998C369.165,870.191 371.262,870.788 373.677,870.788C376.283,870.788 379.683,870.001 383.878,868.428C389.534,866.258 392.839,865.037 393.792,864.766C399.639,860.263 404.66,858.011 408.855,858.011C412.096,858.011 414.67,859.395 416.577,862.162C416.132,865.905 415.798,869.852 415.576,874.003C415.353,878.153 415.242,882.534 415.242,887.146C415.242,891.54 415.385,896.993 415.671,903.503C415.957,910.013 416.418,917.636 417.053,926.371C417.689,935.106 418.15,942.715 418.436,949.198C418.722,955.681 418.865,961.12 418.865,965.515Z" style="fill-rule:nonzero;"/><path d="M562.34,961.202C562.34,967.386 561.609,982.139 560.148,984.309C556.652,989.409 548.708,993.478 536.314,996.516C528.179,998.415 520.696,1000.48 513.864,1002.7C507.031,1004.93 500.724,1007.28 494.94,1009.78C490.936,1010 483.818,1011.06 473.586,1012.96C464.624,1014.58 457.506,1015.4 452.231,1015.4C445.939,1015.4 440.314,1014.47 435.357,1012.63C436.12,1009.21 436.883,1005.82 437.645,1002.46C438.408,999.093 439.139,995.702 439.838,992.284C441.427,984.526 442.221,967.088 442.221,961.12C442.221,955.261 441.649,950.378 440.505,946.472C439.997,944.898 439.25,942.972 438.265,940.694C437.28,938.415 435.993,935.784 434.404,932.8C431.29,926.94 429.733,919.128 429.733,909.362C429.733,906.487 430.209,901.658 431.163,894.877C432.116,888.095 433.578,879.279 435.548,868.428C445.018,872.768 454.9,874.939 465.196,874.939C476.7,874.939 486.551,872.172 494.749,866.638C498.563,865.607 502.853,865.092 507.619,865.092C518.741,865.092 527.671,867.316 534.408,871.765C541.907,876.702 545.657,883.755 545.657,892.924C545.657,893.9 545.562,895.365 545.371,897.318C545.18,899.217 545.085,900.655 545.085,901.631C545.085,908.63 547.945,918.585 553.665,931.498C559.448,944.356 562.34,954.257 562.34,961.202ZM512.958,958.842C512.958,951.3 511.528,944.22 508.668,937.601C507.397,935.594 505.935,933.044 504.283,929.952C502.63,926.859 500.819,923.197 498.849,918.965C497.641,914.896 497.037,910.285 497.037,905.131C497.037,904.208 497.101,903.069 497.228,901.713C497.355,900.356 497.546,898.783 497.8,896.993C498.054,895.202 498.245,893.642 498.372,892.313C498.499,890.984 498.563,889.858 498.563,888.936C498.563,887.525 497.8,886.033 496.275,884.46C495.83,884.243 495.321,884.134 494.749,884.134C493.923,884.134 491.699,884.84 488.076,886.25C483.945,887.824 481.466,888.719 480.64,888.936C478.543,896.857 477.494,903.964 477.494,910.258C477.494,916.171 478.416,921.786 480.259,927.103C481.149,929.599 483.182,933.261 486.36,938.09C489.22,942.538 491.063,946.255 491.889,949.239C492.843,952.928 493.319,956.888 493.319,961.12C493.319,967.305 492.175,985.313 489.887,993.993C498.722,992.637 504.823,990.087 508.191,986.343C511.369,982.817 512.958,966.6 512.958,958.842Z" style="fill-rule:nonzero;"/><path d="M562.34,961.202C562.34,967.386 561.609,982.139 560.148,984.309C556.652,989.409 548.708,993.478 536.314,996.516C528.179,998.415 520.696,1000.48 513.864,1002.7C507.031,1004.93 500.724,1007.28 494.94,1009.78C490.936,1010 483.818,1011.06 473.586,1012.96C464.624,1014.58 457.506,1015.4 452.231,1015.4C445.939,1015.4 440.314,1014.47 435.357,1012.63C436.12,1009.21 436.883,1005.82 437.645,1002.46C438.408,999.093 439.139,995.702 439.838,992.284C441.427,984.526 442.221,967.088 442.221,961.12C442.221,955.261 441.649,950.378 440.505,946.472C439.997,944.898 439.25,942.972 438.265,940.694C437.28,938.415 435.993,935.784 434.404,932.8C431.29,926.94 429.733,919.128 429.733,909.362C429.733,906.487 430.209,901.658 431.163,894.877C432.116,888.095 433.578,879.279 435.548,868.428C445.018,872.768 454.9,874.939 465.196,874.939C476.7,874.939 486.551,872.172 494.749,866.638C498.563,865.607 502.853,865.092 507.619,865.092C518.741,865.092 527.671,867.316 534.408,871.765C541.907,876.702 545.657,883.755 545.657,892.924C545.657,893.9 545.562,895.365 545.371,897.318C545.18,899.217 545.085,900.655 545.085,901.631C545.085,908.63 547.945,918.585 553.665,931.498C559.448,944.356 562.34,954.257 562.34,961.202ZM512.958,958.842C512.958,951.3 511.528,944.22 508.668,937.601C507.397,935.594 505.935,933.044 504.283,929.952C502.63,926.859 500.819,923.197 498.849,918.965C497.641,914.896 497.037,910.285 497.037,905.131C497.037,904.208 497.101,903.069 497.228,901.713C497.355,900.356 497.546,898.783 497.8,896.993C498.054,895.202 498.245,893.642 498.372,892.313C498.499,890.984 498.563,889.858 498.563,888.936C498.563,887.525 497.8,886.033 496.275,884.46C495.83,884.243 495.321,884.134 494.749,884.134C493.923,884.134 491.699,884.84 488.076,886.25C483.945,887.824 481.466,888.719 480.64,888.936C478.543,896.857 477.494,903.964 477.494,910.258C477.494,916.171 478.416,921.786 480.259,927.103C481.149,929.599 483.182,933.261 486.36,938.09C489.22,942.538 491.063,946.255 491.889,949.239C492.843,952.928 493.319,956.888 493.319,961.12C493.319,967.305 492.175,985.313 489.887,993.993C498.722,992.637 504.823,990.087 508.191,986.343C511.369,982.817 512.958,966.6 512.958,958.842Z" style="fill-rule:nonzero;"/><path d="M703.718,964.864C703.718,969.421 702.034,983.495 698.666,985.937C696.06,987.835 692.215,989.436 687.13,990.738C685.033,991.172 682.936,991.633 680.839,992.121C678.741,992.61 676.644,993.071 674.547,993.505C656.942,997.791 642.642,1003.84 631.647,1011.65C624.847,1016.53 617.474,1018.98 609.53,1018.98C599.679,1018.98 591.226,1015.23 584.171,1007.75C577.562,1000.64 574.257,992.8 574.257,984.228L574.257,982.193C574.257,981.325 574.289,969.774 574.352,968.689C574.416,967.603 574.463,966.64 574.495,965.8C574.527,964.959 574.543,964.267 574.543,963.724C574.543,953.362 573.145,943.705 570.348,934.753C569.141,931.009 567.615,925.177 565.772,917.256C565.009,912.373 564.628,906.378 564.628,899.271C564.628,894.443 567.266,890.672 572.541,887.959C572.859,887.797 574.304,887.281 576.878,886.413C579.452,885.545 583.123,884.324 587.889,882.751C591.957,881.178 597.009,879.265 603.047,877.014C609.085,874.762 616.203,872.117 624.402,869.079C625.228,868.808 626.213,868.482 627.357,868.103C628.501,867.723 629.867,867.235 631.456,866.638C632.346,866.204 633.474,865.661 634.841,865.01C636.207,864.359 637.812,863.6 639.655,862.731C644.231,860.887 648.807,859.965 653.383,859.965C665.013,859.965 672.926,865.064 677.121,875.264C678.455,878.519 679.123,884.487 679.123,893.168C679.123,894.144 679.154,895.121 679.218,896.097C679.281,897.074 679.377,898.023 679.504,898.946C675.691,898.078 671.718,897.644 667.587,897.644C655.003,897.644 642.96,901.306 631.456,908.63C631.329,907.708 631.218,906.785 631.123,905.863C631.027,904.941 630.98,904.018 630.98,903.096C630.98,902.337 631.027,901.428 631.123,900.37C631.218,899.312 631.393,898.078 631.647,896.667C631.901,895.256 632.076,894.022 632.171,892.964C632.267,891.906 632.314,891.025 632.314,890.319C632.314,888.963 631.71,887.444 630.503,885.762C629.55,885.491 628.66,885.355 627.834,885.355C624.402,885.355 620.747,887.173 616.87,890.808C612.994,894.443 611.055,900.139 611.055,907.897C611.055,916.47 612.803,924.174 616.298,931.009C616.743,931.986 618.936,935.187 622.876,940.612C627.071,946.472 629.168,954.718 629.168,965.352C629.168,966.111 629.121,967.034 629.025,968.119C628.93,969.204 628.819,981.054 628.692,982.519C628.565,983.929 628.469,985.177 628.406,986.262C628.342,987.347 628.31,988.242 628.31,988.948C628.31,990.846 629.423,992.257 631.647,993.179C632.982,993.179 634.856,992.528 637.272,991.226C643.055,988.08 646.868,974.005 648.711,970.153C650.11,967.278 650.809,962.639 650.809,956.237C650.809,955.315 650.761,954.352 650.666,953.348C650.57,952.345 650.459,951.327 650.332,950.297C655.417,948.777 660.787,948.018 666.443,948.018C678.392,948.018 690.531,951.056 702.86,957.133C703.432,958.923 703.718,961.5 703.718,964.864Z" style="fill-rule:nonzero;"/><path d="M703.718,964.864C703.718,969.421 702.034,983.495 698.666,985.937C696.06,987.835 692.215,989.436 687.13,990.738C685.033,991.172 682.936,991.633 680.839,992.121C678.741,992.61 676.644,993.071 674.547,993.505C656.942,997.791 642.642,1003.84 631.647,1011.65C624.847,1016.53 617.474,1018.98 609.53,1018.98C599.679,1018.98 591.226,1015.23 584.171,1007.75C577.562,1000.64 574.257,992.8 574.257,984.228L574.257,982.193C574.257,981.325 574.289,969.774 574.352,968.689C574.416,967.603 574.463,966.64 574.495,965.8C574.527,964.959 574.543,964.267 574.543,963.724C574.543,953.362 573.145,943.705 570.348,934.753C569.141,931.009 567.615,925.177 565.772,917.256C565.009,912.373 564.628,906.378 564.628,899.271C564.628,894.443 567.266,890.672 572.541,887.959C572.859,887.797 574.304,887.281 576.878,886.413C579.452,885.545 583.123,884.324 587.889,882.751C591.957,881.178 597.009,879.265 603.047,877.014C609.085,874.762 616.203,872.117 624.402,869.079C625.228,868.808 626.213,868.482 627.357,868.103C628.501,867.723 629.867,867.235 631.456,866.638C632.346,866.204 633.474,865.661 634.841,865.01C636.207,864.359 637.812,863.6 639.655,862.731C644.231,860.887 648.807,859.965 653.383,859.965C665.013,859.965 672.926,865.064 677.121,875.264C678.455,878.519 679.123,884.487 679.123,893.168C679.123,894.144 679.154,895.121 679.218,896.097C679.281,897.074 679.377,898.023 679.504,898.946C675.691,898.078 671.718,897.644 667.587,897.644C655.003,897.644 642.96,901.306 631.456,908.63C631.329,907.708 631.218,906.785 631.123,905.863C631.027,904.941 630.98,904.018 630.98,903.096C630.98,902.337 631.027,901.428 631.123,900.37C631.218,899.312 631.393,898.078 631.647,896.667C631.901,895.256 632.076,894.022 632.171,892.964C632.267,891.906 632.314,891.025 632.314,890.319C632.314,888.963 631.71,887.444 630.503,885.762C629.55,885.491 628.66,885.355 627.834,885.355C624.402,885.355 620.747,887.173 616.87,890.808C612.994,894.443 611.055,900.139 611.055,907.897C611.055,916.47 612.803,924.174 616.298,931.009C616.743,931.986 618.936,935.187 622.876,940.612C627.071,946.472 629.168,954.718 629.168,965.352C629.168,966.111 629.121,967.034 629.025,968.119C628.93,969.204 628.819,981.054 628.692,982.519C628.565,983.929 628.469,985.177 628.406,986.262C628.342,987.347 628.31,988.242 628.31,988.948C628.31,990.846 629.423,992.257 631.647,993.179C632.982,993.179 634.856,992.528 637.272,991.226C643.055,988.08 646.868,974.005 648.711,970.153C650.11,967.278 650.809,962.639 650.809,956.237C650.809,955.315 650.761,954.352 650.666,953.348C650.57,952.345 650.459,951.327 650.332,950.297C655.417,948.777 660.787,948.018 666.443,948.018C678.392,948.018 690.531,951.056 702.86,957.133C703.432,958.923 703.718,961.5 703.718,964.864Z" style="fill-rule:nonzero;"/><path d="M834.896,968.444C834.896,978.21 832.163,997.465 826.697,1005.06C820.723,1002.51 814.145,1001.24 806.963,1001.24C798.574,1001.24 788.946,1003 778.078,1006.53C783.035,993.83 785.514,971.483 785.514,960.632C780.938,961.608 774.296,963.724 765.589,966.98C765.144,976.203 762.666,998.198 758.153,1011.82C751.162,1012.79 744.012,1013.28 736.703,1013.28C727.551,1013.28 718.368,1012.49 709.152,1010.92C709.216,1008.48 709.565,1005.44 710.201,1001.81C710.837,998.171 711.79,993.858 713.061,988.866C715.412,979.318 716.588,961.337 716.588,956.075C716.588,952.928 716.207,950.378 715.444,948.425C714.936,947.231 714.411,946.065 713.871,944.925C713.331,943.786 712.807,942.647 712.298,941.508C707.786,930.874 704.831,919.236 703.432,906.595C703.369,905.727 703.273,904.683 703.146,903.462C703.019,902.242 702.892,900.79 702.765,899.108C702.574,897.481 702.479,896.423 702.479,895.935C702.479,894.416 702.86,892.869 703.623,891.296C706.61,885.491 713.855,881.774 725.359,880.147C737.307,878.519 748.302,875.562 758.344,871.276C760.314,870.246 762.284,869.242 764.255,868.265C766.225,867.289 768.227,866.312 770.26,865.336C774.519,863.328 778.999,862.325 783.702,862.325C790.312,862.325 796.54,864.006 802.388,867.37C808.107,870.788 812.334,875.047 815.067,880.147C817.355,884.487 818.499,889.967 818.499,896.586C818.499,904.452 821.232,916.415 826.697,932.474C832.163,948.533 834.896,960.523 834.896,968.444ZM783.607,944.274C782.145,940.477 780.699,936.693 779.269,932.922C777.839,929.151 776.394,925.367 774.932,921.569C771.627,912.292 769.974,904.615 769.974,898.539C769.974,897.996 770.006,897.345 770.07,896.586C770.133,895.826 770.229,894.931 770.356,893.9C770.483,892.815 770.578,891.893 770.642,891.133C770.705,890.374 770.737,889.723 770.737,889.18C770.737,888.203 770.324,887.213 769.498,886.21C768.672,885.206 767.686,884.704 766.542,884.704C766.86,884.704 766.622,884.786 765.828,884.948C765.033,885.111 763.714,885.382 761.871,885.762C756.85,888.638 753.673,891.16 752.338,893.33C751.003,895.392 750.336,898.891 750.336,903.828C750.336,910.936 751.893,918.884 755.007,927.673C755.452,929.083 758.598,936.733 764.445,950.622C768.64,948.994 775.027,946.879 783.607,944.274Z" style="fill-rule:nonzero;"/><path d="M834.896,968.444C834.896,978.21 832.163,997.465 826.697,1005.06C820.723,1002.51 814.145,1001.24 806.963,1001.24C798.574,1001.24 788.946,1003 778.078,1006.53C783.035,993.83 785.514,971.483 785.514,960.632C780.938,961.608 774.296,963.724 765.589,966.98C765.144,976.203 762.666,998.198 758.153,1011.82C751.162,1012.79 744.012,1013.28 736.703,1013.28C727.551,1013.28 718.368,1012.49 709.152,1010.92C709.216,1008.48 709.565,1005.44 710.201,1001.81C710.837,998.171 711.79,993.858 713.061,988.866C715.412,979.318 716.588,961.337 716.588,956.075C716.588,952.928 716.207,950.378 715.444,948.425C714.936,947.231 714.411,946.065 713.871,944.925C713.331,943.786 712.807,942.647 712.298,941.508C707.786,930.874 704.831,919.236 703.432,906.595C703.369,905.727 703.273,904.683 703.146,903.462C703.019,902.242 702.892,900.79 702.765,899.108C702.574,897.481 702.479,896.423 702.479,895.935C702.479,894.416 702.86,892.869 703.623,891.296C706.61,885.491 713.855,881.774 725.359,880.147C737.307,878.519 748.302,875.562 758.344,871.276C760.314,870.246 762.284,869.242 764.255,868.265C766.225,867.289 768.227,866.312 770.26,865.336C774.519,863.328 778.999,862.325 783.702,862.325C790.312,862.325 796.54,864.006 802.388,867.37C808.107,870.788 812.334,875.047 815.067,880.147C817.355,884.487 818.499,889.967 818.499,896.586C818.499,904.452 821.232,916.415 826.697,932.474C832.163,948.533 834.896,960.523 834.896,968.444ZM783.607,944.274C782.145,940.477 780.699,936.693 779.269,932.922C777.839,929.151 776.394,925.367 774.932,921.569C771.627,912.292 769.974,904.615 769.974,898.539C769.974,897.996 770.006,897.345 770.07,896.586C770.133,895.826 770.229,894.931 770.356,893.9C770.483,892.815 770.578,891.893 770.642,891.133C770.705,890.374 770.737,889.723 770.737,889.18C770.737,888.203 770.324,887.213 769.498,886.21C768.672,885.206 767.686,884.704 766.542,884.704C766.86,884.704 766.622,884.786 765.828,884.948C765.033,885.111 763.714,885.382 761.871,885.762C756.85,888.638 753.673,891.16 752.338,893.33C751.003,895.392 750.336,898.891 750.336,903.828C750.336,910.936 751.893,918.884 755.007,927.673C755.452,929.083 758.598,936.733 764.445,950.622C768.64,948.994 775.027,946.879 783.607,944.274Z" style="fill-rule:nonzero;"/><path d="M958.733,865.987C954.538,869.025 951.424,873.067 949.39,878.112C944.56,876.376 939.253,875.508 933.47,875.508C927.941,875.508 922.03,876.268 915.738,877.787C914.022,881.964 913.164,886.359 913.164,890.97C913.164,898.403 915.833,908.494 921.172,921.244C921.871,922.817 922.618,924.77 923.412,927.103C924.207,929.436 925.112,932.23 926.129,935.485C926.638,938.09 927.035,941.209 927.321,944.844C927.607,948.479 927.75,952.657 927.75,957.377C927.75,969.15 926.701,991.091 924.604,1002.05C922.761,1002.48 920.822,1002.99 918.789,1003.56C916.755,1004.12 914.658,1004.71 912.497,1005.31C909.192,1006.07 904.552,1007.37 898.578,1009.21C898.26,1009.32 897.641,1009.59 896.719,1010.02C895.798,1010.46 894.574,1011.06 893.049,1011.82C885.804,1015.5 879.766,1017.73 874.936,1018.49C875.444,1011.54 875.841,1004.95 876.127,998.713C876.413,992.474 876.556,975.931 876.556,970.235C876.556,968.065 876.509,965.542 876.413,962.666C876.318,959.791 876.207,956.509 876.08,952.819C876.08,951.897 876.032,950.758 875.937,949.401C875.841,948.045 875.73,946.445 875.603,944.6C875.285,942.755 873.855,937.954 871.313,930.196C867.182,917.717 865.116,907.626 865.116,899.922C865.116,894.822 865.815,890.211 867.214,886.088C865.815,886.196 864.417,886.277 863.019,886.332C861.621,886.386 860.191,886.413 858.729,886.413C849.386,886.413 841.22,885.084 834.229,882.425C835.754,876.837 838.01,871.9 840.997,867.614C846.399,868.537 852.024,868.998 857.871,868.998C861.684,868.998 865.99,868.781 870.789,868.347C875.587,867.913 880.973,867.262 886.948,866.394C890.761,865.96 896.354,865.146 903.726,863.952C906.141,863.41 908.588,862.894 911.067,862.406C913.545,861.918 915.992,861.402 918.407,860.86C921.267,860.317 923.937,859.91 926.415,859.639C928.894,859.368 931.245,859.232 933.47,859.232C943.511,859.232 951.933,861.484 958.733,865.987Z" style="fill-rule:nonzero;"/><path d="M958.733,865.987C954.538,869.025 951.424,873.067 949.39,878.112C944.56,876.376 939.253,875.508 933.47,875.508C927.941,875.508 922.03,876.268 915.738,877.787C914.022,881.964 913.164,886.359 913.164,890.97C913.164,898.403 915.833,908.494 921.172,921.244C921.871,922.817 922.618,924.77 923.412,927.103C924.207,929.436 925.112,932.23 926.129,935.485C926.638,938.09 927.035,941.209 927.321,944.844C927.607,948.479 927.75,952.657 927.75,957.377C927.75,969.15 926.701,991.091 924.604,1002.05C922.761,1002.48 920.822,1002.99 918.789,1003.56C916.755,1004.12 914.658,1004.71 912.497,1005.31C909.192,1006.07 904.552,1007.37 898.578,1009.21C898.26,1009.32 897.641,1009.59 896.719,1010.02C895.798,1010.46 894.574,1011.06 893.049,1011.82C885.804,1015.5 879.766,1017.73 874.936,1018.49C875.444,1011.54 875.841,1004.95 876.127,998.713C876.413,992.474 876.556,975.931 876.556,970.235C876.556,968.065 876.509,965.542 876.413,962.666C876.318,959.791 876.207,956.509 876.08,952.819C876.08,951.897 876.032,950.758 875.937,949.401C875.841,948.045 875.73,946.445 875.603,944.6C875.285,942.755 873.855,937.954 871.313,930.196C867.182,917.717 865.116,907.626 865.116,899.922C865.116,894.822 865.815,890.211 867.214,886.088C865.815,886.196 864.417,886.277 863.019,886.332C861.621,886.386 860.191,886.413 858.729,886.413C849.386,886.413 841.22,885.084 834.229,882.425C835.754,876.837 838.01,871.9 840.997,867.614C846.399,868.537 852.024,868.998 857.871,868.998C861.684,868.998 865.99,868.781 870.789,868.347C875.587,867.913 880.973,867.262 886.948,866.394C890.761,865.96 896.354,865.146 903.726,863.952C906.141,863.41 908.588,862.894 911.067,862.406C913.545,861.918 915.992,861.402 918.407,860.86C921.267,860.317 923.937,859.91 926.415,859.639C928.894,859.368 931.245,859.232 933.47,859.232C943.511,859.232 951.933,861.484 958.733,865.987Z" style="fill-rule:nonzero;"/></g></g></g><g id="Layer1"></g></g></svg>