<?xml version="1.0" encoding="UTF-8" standalone="no"?><!DOCTYPE svg PUBLIC "-//W3C//DTD SVG 1.1//EN" "http://www.w3.org/Graphics/SVG/1.1/DTD/svg11.dtd"><svg width="100%" height="100%" viewBox="0 0 1024 1024" version="1.1" xmlns="http://www.w3.org/2000/svg" xmlns:xlink="http://www.w3.org/1999/xlink" xml:space="preserve" xmlns:serif="http://www.serif.com/" style="fill-rule:evenodd;clip-rule:evenodd;stroke-linecap:round;stroke-linejoin:round;stroke-miterlimit:1.5;"><rect id="Artboard1" x="0" y="0" width="1024" height="1024" style="fill:none;"/><clipPath id="_clip1"><rect id="Artboard11" serif:id="Artboard1" x="0" y="0" width="1024" height="1024"/></clipPath><g clip-path="url(#_clip1)"><g><circle id="face" cx="512" cy="512" r="336.735" style="fill:#fd0;stroke:#000;stroke-width:8.55px;"/><g id="smiley"></g><g id="mouth"></g><g id="text-curves" serif:id="text curves"><path d="M219.715,971.264C219.715,981.03 216.982,1000.28 211.516,1007.88C205.542,1005.33 198.964,1004.06 191.783,1004.06C183.393,1004.06 173.765,1005.82 162.897,1009.35C167.854,996.65 170.333,974.303 170.333,963.452C165.757,964.428 159.115,966.544 150.408,969.799C149.963,979.023 147.485,1001.02 142.972,1014.63C135.981,1015.61 128.831,1016.1 121.522,1016.1C112.371,1016.1 103.187,1015.31 93.971,1013.74C94.035,1011.3 94.384,1008.26 95.02,1004.63C95.656,1000.99 96.609,996.677 97.88,991.686C100.232,982.138 101.407,964.157 101.407,958.895C101.407,955.748 101.026,953.198 100.263,951.245C99.755,950.051 99.231,948.885 98.69,947.745C98.15,946.606 97.626,945.467 97.117,944.327C92.605,933.694 89.65,922.056 88.251,909.415C88.188,908.547 88.092,907.503 87.965,906.282C87.838,905.062 87.711,903.61 87.584,901.928C87.393,900.301 87.298,899.243 87.298,898.755C87.298,897.235 87.679,895.689 88.442,894.116C91.429,888.311 98.674,884.594 110.178,882.967C122.126,881.339 133.121,878.382 143.163,874.096C145.133,873.066 147.103,872.062 149.074,871.085C151.044,870.109 153.046,869.132 155.079,868.156C159.338,866.148 163.818,865.145 168.521,865.145C175.131,865.145 181.36,866.826 187.207,870.19C192.927,873.608 197.153,877.867 199.886,882.967C202.174,887.307 203.318,892.787 203.318,899.406C203.318,907.272 206.051,919.235 211.516,935.294C216.982,951.353 219.715,963.343 219.715,971.264ZM168.426,947.094C166.964,943.297 165.518,939.512 164.088,935.742C162.658,931.971 161.213,928.187 159.751,924.389C156.446,915.112 154.793,907.435 154.793,901.359C154.793,900.816 154.825,900.165 154.889,899.406C154.952,898.646 155.048,897.751 155.175,896.72C155.302,895.635 155.397,894.713 155.461,893.953C155.524,893.194 155.556,892.543 155.556,892C155.556,891.023 155.143,890.033 154.317,889.03C153.491,888.026 152.506,887.524 151.362,887.524C151.679,887.524 151.441,887.605 150.647,887.768C149.852,887.931 148.533,888.202 146.69,888.582C141.669,891.457 138.492,893.98 137.157,896.15C135.822,898.212 135.155,901.711 135.155,906.648C135.155,913.756 136.712,921.704 139.826,930.493C140.271,931.903 143.417,939.553 149.264,953.442C153.459,951.814 159.846,949.699 168.426,947.094Z" style="fill-rule:nonzero;"/><g style="filter:url(#_Effect2);"><path d="M219.715,971.264C219.715,981.03 216.982,1000.28 211.516,1007.88C205.542,1005.33 198.964,1004.06 191.783,1004.06C183.393,1004.06 173.765,1005.82 162.897,1009.35C167.854,996.65 170.333,974.303 170.333,963.452C165.757,964.428 159.115,966.544 150.408,969.799C149.963,979.023 147.485,1001.02 142.972,1014.63C135.981,1015.61 128.831,1016.1 121.522,1016.1C112.371,1016.1 103.187,1015.31 93.971,1013.74C94.035,1011.3 94.384,1008.26 95.02,1004.63C95.656,1000.99 96.609,996.677 97.88,991.686C100.232,982.138 101.407,964.157 101.407,958.895C101.407,955.748 101.026,953.198 100.263,951.245C99.755,950.051 99.231,948.885 98.69,947.745C98.15,946.606 97.626,945.467 97.117,944.327C92.605,933.694 89.65,922.056 88.251,909.415C88.188,908.547 88.092,907.503 87.965,906.282C87.838,905.062 87.711,903.61 87.584,901.928C87.393,900.301 87.298,899.243 87.298,898.755C87.298,897.235 87.679,895.689 88.442,894.116C91.429,888.311 98.674,884.594 110.178,882.967C122.126,881.339 133.121,878.382 143.163,874.096C145.133,873.066 147.103,872.062 149.074,871.085C151.044,870.109 153.046,869.132 155.079,868.156C159.338,866.148 163.818,865.145 168.521,865.145C175.131,865.145 181.36,866.826 187.207,870.19C192.927,873.608 197.153,877.867 199.886,882.967C202.174,887.307 203.318,892.787 203.318,899.406C203.318,907.272 206.051,919.235 211.516,935.294C216.982,951.353 219.715,963.343 219.715,971.264ZM168.426,947.094C166.964,943.297 165.518,939.512 164.088,935.742C162.658,931.971 161.213,928.187 159.751,924.389C156.446,915.112 154.793,907.435 154.793,901.359C154.793,900.816 154.825,900.165 154.889,899.406C154.952,898.646 155.048,897.751 155.175,896.72C155.302,895.635 155.397,894.713 155.461,893.953C155.524,893.194 155.556,892.543 155.556,892C155.556,891.023 155.143,890.033 154.317,889.03C153.491,888.026 152.506,887.524 151.362,887.524C151.679,887.524 151.441,887.605 150.647,887.768C149.852,887.931 148.533,888.202 146.69,888.582C141.669,891.457 138.492,893.98 137.157,896.15C135.822,898.212 135.155,901.711 135.155,906.648C135.155,913.756 136.712,921.704 139.826,930.493C140.271,931.903 143.417,939.553 149.264,953.442C153.459,951.814 159.846,949.699 168.426,947.094Z" style="fill-rule:nonzero;"/></g><path d="M219.715,971.264C219.715,981.03 216.982,1000.28 211.516,1007.88C205.542,1005.33 198.964,1004.06 191.783,1004.06C183.393,1004.06 173.765,1005.82 162.897,1009.35C167.854,996.65 170.333,974.303 170.333,963.452C165.757,964.428 159.115,966.544 150.408,969.799C149.963,979.023 147.485,1001.02 142.972,1014.63C135.981,1015.61 128.831,1016.1 121.522,1016.1C112.371,1016.1 103.187,1015.31 93.971,1013.74C94.035,1011.3 94.384,1008.26 95.02,1004.63C95.656,1000.99 96.609,996.677 97.88,991.686C100.232,982.138 101.407,964.157 101.407,958.895C101.407,955.748 101.026,953.198 100.263,951.245C99.755,950.051 99.231,948.885 98.69,947.745C98.15,946.606 97.626,945.467 97.117,944.327C92.605,933.694 89.65,922.056 88.251,909.415C88.188,908.547 88.092,907.503 87.965,906.282C87.838,905.062 87.711,903.61 87.584,901.928C87.393,900.301 87.298,899.243 87.298,898.755C87.298,897.235 87.679,895.689 88.442,894.116C91.429,888.311 98.674,884.594 110.178,882.967C122.126,881.339 133.121,878.382 143.163,874.096C145.133,873.066 147.103,872.062 149.074,871.085C151.044,870.109 153.046,869.132 155.079,868.156C159.338,866.148 163.818,865.145 168.521,865.145C175.131,865.145 181.36,866.826 187.207,870.19C192.927,873.608 197.153,877.867 199.886,882.967C202.174,887.307 203.318,892.787 203.318,899.406C203.318,907.272 206.051,919.235 211.516,935.294C216.982,951.353 219.715,963.343 219.715,971.264ZM168.426,947.094C166.964,943.297 165.518,939.512 164.088,935.742C162.658,931.971 161.213,928.187 159.751,924.389C156.446,915.112 154.793,907.435 154.793,901.359C154.793,900.816 154.825,900.165 154.889,899.406C154.952,898.646 155.048,897.751 155.175,896.72C155.302,895.635 155.397,894.713 155.461,893.953C155.524,893.194 155.556,892.543 155.556,892C155.556,891.023 155.143,890.033 154.317,889.03C153.491,888.026 152.506,887.524 151.362,887.524C151.679,887.524 151.441,887.605 150.647,887.768C149.852,887.931 148.533,888.202 146.69,888.582C141.669,891.457 138.492,893.98 137.157,896.15C135.822,898.212 135.155,901.711 135.155,906.648C135.155,913.756 136.712,921.704 139.826,930.493C140.271,931.903 143.417,939.553 149.264,953.442C153.459,951.814 159.846,949.699 168.426,947.094Z" style="fill-rule:nonzero;"/><path d="M361.951,967.684C361.951,972.241 360.267,986.315 356.899,988.756C354.293,990.655 350.448,992.256 345.363,993.558C343.266,993.992 341.169,994.453 339.071,994.941C336.974,995.43 334.877,995.891 332.779,996.325C315.175,1000.61 300.875,1006.66 289.88,1014.47C283.079,1019.36 275.707,1021.8 267.763,1021.8C257.912,1021.8 249.459,1018.05 242.404,1010.57C235.794,1003.46 232.49,995.62 232.49,987.048L232.49,985.013C232.49,984.145 232.521,972.594 232.585,971.508C232.648,970.423 232.696,969.46 232.728,968.619C232.76,967.779 232.776,967.087 232.776,966.544C232.776,956.182 231.377,946.525 228.581,937.573C227.373,933.829 225.848,927.997 224.005,920.076C223.242,915.193 222.861,909.198 222.861,902.091C222.861,897.263 225.498,893.492 230.774,890.779C231.091,890.617 232.537,890.101 235.111,889.233C237.685,888.365 241.355,887.144 246.122,885.571C250.19,883.998 255.242,882.085 261.28,879.834C267.318,877.582 274.436,874.937 282.634,871.899C283.461,871.628 284.446,871.302 285.59,870.923C286.734,870.543 288.1,870.054 289.689,869.458C290.579,869.024 291.707,868.481 293.073,867.83C294.44,867.179 296.045,866.42 297.888,865.551C302.464,863.707 307.04,862.785 311.616,862.785C323.246,862.785 331.159,867.884 335.353,878.084C336.688,881.339 337.355,887.307 337.355,895.988C337.355,896.964 337.387,897.941 337.451,898.917C337.514,899.894 337.61,900.843 337.737,901.766C333.923,900.898 329.951,900.464 325.82,900.464C313.236,900.464 301.193,904.126 289.689,911.45C289.562,910.528 289.451,909.605 289.355,908.683C289.26,907.761 289.212,906.838 289.212,905.916C289.212,905.156 289.26,904.248 289.355,903.19C289.451,902.132 289.626,900.898 289.88,899.487C290.134,898.076 290.309,896.842 290.404,895.784C290.499,894.726 290.547,893.845 290.547,893.139C290.547,891.783 289.943,890.264 288.736,888.582C287.782,888.311 286.893,888.175 286.066,888.175C282.634,888.175 278.98,889.993 275.103,893.628C271.226,897.263 269.288,902.959 269.288,910.717C269.288,919.29 271.036,926.994 274.531,933.829C274.976,934.806 277.169,938.007 281.109,943.432C285.304,949.292 287.401,957.538 287.401,968.172C287.401,968.931 287.353,969.854 287.258,970.939C287.163,972.024 287.052,983.874 286.924,985.339C286.797,986.749 286.702,987.997 286.638,989.082C286.575,990.167 286.543,991.062 286.543,991.768C286.543,993.666 287.655,995.077 289.88,995.999C291.214,995.999 293.089,995.348 295.504,994.046C301.288,990.899 305.101,976.825 306.944,972.973C308.342,970.098 309.042,965.459 309.042,959.057C309.042,958.135 308.994,957.172 308.899,956.168C308.803,955.165 308.692,954.147 308.565,953.117C313.649,951.597 319.02,950.838 324.676,950.838C336.624,950.838 348.763,953.876 361.093,959.952C361.665,961.743 361.951,964.32 361.951,967.684Z" style="fill-rule:nonzero;"/><g style="filter:url(#_Effect3);"><path d="M361.951,967.684C361.951,972.241 360.267,986.315 356.899,988.756C354.293,990.655 350.448,992.256 345.363,993.558C343.266,993.992 341.169,994.453 339.071,994.941C336.974,995.43 334.877,995.891 332.779,996.325C315.175,1000.61 300.875,1006.66 289.88,1014.47C283.079,1019.36 275.707,1021.8 267.763,1021.8C257.912,1021.8 249.459,1018.05 242.404,1010.57C235.794,1003.46 232.49,995.62 232.49,987.048L232.49,985.013C232.49,984.145 232.521,972.594 232.585,971.508C232.648,970.423 232.696,969.46 232.728,968.619C232.76,967.779 232.776,967.087 232.776,966.544C232.776,956.182 231.377,946.525 228.581,937.573C227.373,933.829 225.848,927.997 224.005,920.076C223.242,915.193 222.861,909.198 222.861,902.091C222.861,897.263 225.498,893.492 230.774,890.779C231.091,890.617 232.537,890.101 235.111,889.233C237.685,888.365 241.355,887.144 246.122,885.571C250.19,883.998 255.242,882.085 261.28,879.834C267.318,877.582 274.436,874.937 282.634,871.899C283.461,871.628 284.446,871.302 285.59,870.923C286.734,870.543 288.1,870.054 289.689,869.458C290.579,869.024 291.707,868.481 293.073,867.83C294.44,867.179 296.045,866.42 297.888,865.551C302.464,863.707 307.04,862.785 311.616,862.785C323.246,862.785 331.159,867.884 335.353,878.084C336.688,881.339 337.355,887.307 337.355,895.988C337.355,896.964 337.387,897.941 337.451,898.917C337.514,899.894 337.61,900.843 337.737,901.766C333.923,900.898 329.951,900.464 325.82,900.464C313.236,900.464 301.193,904.126 289.689,911.45C289.562,910.528 289.451,909.605 289.355,908.683C289.26,907.761 289.212,906.838 289.212,905.916C289.212,905.156 289.26,904.248 289.355,903.19C289.451,902.132 289.626,900.898 289.88,899.487C290.134,898.076 290.309,896.842 290.404,895.784C290.499,894.726 290.547,893.845 290.547,893.139C290.547,891.783 289.943,890.264 288.736,888.582C287.782,888.311 286.893,888.175 286.066,888.175C282.634,888.175 278.98,889.993 275.103,893.628C271.226,897.263 269.288,902.959 269.288,910.717C269.288,919.29 271.036,926.994 274.531,933.829C274.976,934.806 277.169,938.007 281.109,943.432C285.304,949.292 287.401,957.538 287.401,968.172C287.401,968.931 287.353,969.854 287.258,970.939C287.163,972.024 287.052,983.874 286.924,985.339C286.797,986.749 286.702,987.997 286.638,989.082C286.575,990.167 286.543,991.062 286.543,991.768C286.543,993.666 287.655,995.077 289.88,995.999C291.214,995.999 293.089,995.348 295.504,994.046C301.288,990.899 305.101,976.825 306.944,972.973C308.342,970.098 309.042,965.459 309.042,959.057C309.042,958.135 308.994,957.172 308.899,956.168C308.803,955.165 308.692,954.147 308.565,953.117C313.649,951.597 319.02,950.838 324.676,950.838C336.624,950.838 348.763,953.876 361.093,959.952C361.665,961.743 361.951,964.32 361.951,967.684Z" style="fill-rule:nonzero;"/></g><path d="M361.951,967.684C361.951,972.241 360.267,986.315 356.899,988.756C354.293,990.655 350.448,992.256 345.363,993.558C343.266,993.992 341.169,994.453 339.071,994.941C336.974,995.43 334.877,995.891 332.779,996.325C315.175,1000.61 300.875,1006.66 289.88,1014.47C283.079,1019.36 275.707,1021.8 267.763,1021.8C257.912,1021.8 249.459,1018.05 242.404,1010.57C235.794,1003.46 232.49,995.62 232.49,987.048L232.49,985.013C232.49,984.145 232.521,972.594 232.585,971.508C232.648,970.423 232.696,969.46 232.728,968.619C232.76,967.779 232.776,967.087 232.776,966.544C232.776,956.182 231.377,946.525 228.581,937.573C227.373,933.829 225.848,927.997 224.005,920.076C223.242,915.193 222.861,909.198 222.861,902.091C222.861,897.263 225.498,893.492 230.774,890.779C231.091,890.617 232.537,890.101 235.111,889.233C237.685,888.365 241.355,887.144 246.122,885.571C250.19,883.998 255.242,882.085 261.28,879.834C267.318,877.582 274.436,874.937 282.634,871.899C283.461,871.628 284.446,871.302 285.59,870.923C286.734,870.543 288.1,870.054 289.689,869.458C290.579,869.024 291.707,868.481 293.073,867.83C294.44,867.179 296.045,866.42 297.888,865.551C302.464,863.707 307.04,862.785 311.616,862.785C323.246,862.785 331.159,867.884 335.353,878.084C336.688,881.339 337.355,887.307 337.355,895.988C337.355,896.964 337.387,897.941 337.451,898.917C337.514,899.894 337.61,900.843 337.737,901.766C333.923,900.898 329.951,900.464 325.82,900.464C313.236,900.464 301.193,904.126 289.689,911.45C289.562,910.528 289.451,909.605 289.355,908.683C289.26,907.761 289.212,906.838 289.212,905.916C289.212,905.156 289.26,904.248 289.355,903.19C289.451,902.132 289.626,900.898 289.88,899.487C290.134,898.076 290.309,896.842 290.404,895.784C290.499,894.726 290.547,893.845 290.547,893.139C290.547,891.783 289.943,890.264 288.736,888.582C287.782,888.311 286.893,888.175 286.066,888.175C282.634,888.175 278.98,889.993 275.103,893.628C271.226,897.263 269.288,902.959 269.288,910.717C269.288,919.29 271.036,926.994 274.531,933.829C274.976,934.806 277.169,938.007 281.109,943.432C285.304,949.292 287.401,957.538 287.401,968.172C287.401,968.931 287.353,969.854 287.258,970.939C287.163,972.024 287.052,983.874 286.924,985.339C286.797,986.749 286.702,987.997 286.638,989.082C286.575,990.167 286.543,991.062 286.543,991.768C286.543,993.666 287.655,995.077 289.88,995.999C291.214,995.999 293.089,995.348 295.504,994.046C301.288,990.899 305.101,976.825 306.944,972.973C308.342,970.098 309.042,965.459 309.042,959.057C309.042,958.135 308.994,957.172 308.899,956.168C308.803,955.165 308.692,954.147 308.565,953.117C313.649,951.597 319.02,950.838 324.676,950.838C336.624,950.838 348.763,953.876 361.093,959.952C361.665,961.743 361.951,964.32 361.951,967.684Z" style="fill-rule:nonzero;"/><path d="M418.865,968.335C418.865,980.053 418.102,1001.21 416.577,1010.65C414.861,1009.4 413.462,1008.38 412.382,1007.6C411.302,1006.81 410.539,1006.28 410.094,1006.01C407.679,1004.65 405.105,1003.6 402.372,1002.84C399.194,1003.32 395.953,1006.09 392.648,1011.14C389.47,1015.86 385.594,1018.22 381.018,1018.22C376.505,1018.22 372.025,1016.78 367.576,1013.9C371.135,1004.3 372.914,983.444 372.914,972.485C372.914,969.23 372.755,965.92 372.438,962.557C372.12,959.193 371.643,955.775 371.008,952.303C370.499,950.404 369.927,948.057 369.292,945.263C368.656,942.469 367.925,939.201 367.099,935.457C365.447,927.753 364.62,916.36 364.62,901.277C364.62,896.232 364.859,891.268 365.335,886.385C365.812,881.502 366.495,876.646 367.385,871.818C369.165,873.011 371.262,873.608 373.677,873.608C376.283,873.608 379.683,872.821 383.878,871.248C389.534,869.078 392.839,867.857 393.792,867.586C399.639,863.083 404.66,860.831 408.855,860.831C412.096,860.831 414.67,862.215 416.577,864.982C416.132,868.725 415.798,872.672 415.576,876.823C415.353,880.973 415.242,885.354 415.242,889.966C415.242,894.36 415.385,899.813 415.671,906.323C415.957,912.833 416.418,920.456 417.053,929.191C417.689,937.926 418.15,945.535 418.436,952.018C418.722,958.501 418.865,963.94 418.865,968.335Z" style="fill-rule:nonzero;"/><g style="filter:url(#_Effect4);"><path d="M418.865,968.335C418.865,980.053 418.102,1001.21 416.577,1010.65C414.861,1009.4 413.462,1008.38 412.382,1007.6C411.302,1006.81 410.539,1006.28 410.094,1006.01C407.679,1004.65 405.105,1003.6 402.372,1002.84C399.194,1003.32 395.953,1006.09 392.648,1011.14C389.47,1015.86 385.594,1018.22 381.018,1018.22C376.505,1018.22 372.025,1016.78 367.576,1013.9C371.135,1004.3 372.914,983.444 372.914,972.485C372.914,969.23 372.755,965.92 372.438,962.557C372.12,959.193 371.643,955.775 371.008,952.303C370.499,950.404 369.927,948.057 369.292,945.263C368.656,942.469 367.925,939.201 367.099,935.457C365.447,927.753 364.62,916.36 364.62,901.277C364.62,896.232 364.859,891.268 365.335,886.385C365.812,881.502 366.495,876.646 367.385,871.818C369.165,873.011 371.262,873.608 373.677,873.608C376.283,873.608 379.683,872.821 383.878,871.248C389.534,869.078 392.839,867.857 393.792,867.586C399.639,863.083 404.66,860.831 408.855,860.831C412.096,860.831 414.67,862.215 416.577,864.982C416.132,868.725 415.798,872.672 415.576,876.823C415.353,880.973 415.242,885.354 415.242,889.966C415.242,894.36 415.385,899.813 415.671,906.323C415.957,912.833 416.418,920.456 417.053,929.191C417.689,937.926 418.15,945.535 418.436,952.018C418.722,958.501 418.865,963.94 418.865,968.335Z" style="fill-rule:nonzero;"/></g><path d="M418.865,968.335C418.865,980.053 418.102,1001.21 416.577,1010.65C414.861,1009.4 413.462,1008.38 412.382,1007.6C411.302,1006.81 410.539,1006.28 410.094,1006.01C407.679,1004.65 405.105,1003.6 402.372,1002.84C399.194,1003.32 395.953,1006.09 392.648,1011.14C389.47,1015.86 385.594,1018.22 381.018,1018.22C376.505,1018.22 372.025,1016.78 367.576,1013.9C371.135,1004.3 372.914,983.444 372.914,972.485C372.914,969.23 372.755,965.92 372.438,962.557C372.12,959.193 371.643,955.775 371.008,952.303C370.499,950.404 369.927,948.057 369.292,945.263C368.656,942.469 367.925,939.201 367.099,935.457C365.447,927.753 364.62,916.36 364.62,901.277C364.62,896.232 364.859,891.268 365.335,886.385C365.812,881.502 366.495,876.646 367.385,871.818C369.165,873.011 371.262,873.608 373.677,873.608C376.283,873.608 379.683,872.821 383.878,871.248C389.534,869.078 392.839,867.857 393.792,867.586C399.639,863.083 404.66,860.831 408.855,860.831C412.096,860.831 414.67,862.215 416.577,864.982C416.132,868.725 415.798,872.672 415.576,876.823C415.353,880.973 415.242,885.354 415.242,889.966C415.242,894.36 415.385,899.813 415.671,906.323C415.957,912.833 416.418,920.456 417.053,929.191C417.689,937.926 418.15,945.535 418.436,952.018C418.722,958.501 418.865,963.94 418.865,968.335Z" style="fill-rule:nonzero;"/><path d="M562.34,964.021C562.34,970.206 561.609,984.959 560.148,987.129C556.652,992.229 548.708,996.298 536.314,999.336C528.179,1001.24 520.696,1003.3 513.864,1005.52C507.031,1007.75 500.724,1010.11 494.94,1012.6C490.936,1012.82 483.818,1013.88 473.586,1015.77C464.624,1017.4 457.506,1018.22 452.231,1018.22C445.939,1018.22 440.314,1017.29 435.357,1015.45C436.12,1012.03 436.883,1008.64 437.645,1005.28C438.408,1001.91 439.139,998.522 439.838,995.104C441.427,987.346 442.221,969.908 442.221,963.94C442.221,958.081 441.649,953.198 440.505,949.292C439.997,947.718 439.25,945.792 438.265,943.514C437.28,941.235 435.993,938.604 434.404,935.62C431.29,929.76 429.733,921.948 429.733,912.182C429.733,909.307 430.209,904.478 431.163,897.697C432.116,890.915 433.578,882.099 435.548,871.248C445.018,875.588 454.9,877.758 465.196,877.758C476.7,877.758 486.551,874.992 494.749,869.458C498.563,868.427 502.853,867.911 507.619,867.911C518.741,867.911 527.671,870.136 534.408,874.585C541.907,879.522 545.657,886.575 545.657,895.744C545.657,896.72 545.562,898.185 545.371,900.138C545.18,902.037 545.085,903.475 545.085,904.451C545.085,911.45 547.945,921.405 553.665,934.318C559.448,947.176 562.34,957.077 562.34,964.021ZM512.958,961.661C512.958,954.12 511.528,947.04 508.668,940.421C507.397,938.414 505.935,935.864 504.283,932.771C502.63,929.679 500.819,926.017 498.849,921.785C497.641,917.716 497.037,913.105 497.037,907.951C497.037,907.028 497.101,905.889 497.228,904.533C497.355,903.176 497.546,901.603 497.8,899.813C498.054,898.022 498.245,896.462 498.372,895.133C498.499,893.804 498.563,892.678 498.563,891.756C498.563,890.345 497.8,888.853 496.275,887.28C495.83,887.063 495.321,886.954 494.749,886.954C493.923,886.954 491.699,887.66 488.076,889.07C483.945,890.644 481.466,891.539 480.64,891.756C478.543,899.677 477.494,906.784 477.494,913.077C477.494,918.991 478.416,924.606 480.259,929.923C481.149,932.419 483.182,936.081 486.36,940.91C489.22,945.358 491.063,949.075 491.889,952.059C492.843,955.748 493.319,959.708 493.319,963.94C493.319,970.125 492.175,988.133 489.887,996.813C498.722,995.457 504.823,992.907 508.191,989.163C511.369,985.637 512.958,969.42 512.958,961.661Z" style="fill-rule:nonzero;"/><g style="filter:url(#_Effect5);"><path d="M562.34,964.021C562.34,970.206 561.609,984.959 560.148,987.129C556.652,992.229 548.708,996.298 536.314,999.336C528.179,1001.24 520.696,1003.3 513.864,1005.52C507.031,1007.75 500.724,1010.11 494.94,1012.6C490.936,1012.82 483.818,1013.88 473.586,1015.77C464.624,1017.4 457.506,1018.22 452.231,1018.22C445.939,1018.22 440.314,1017.29 435.357,1015.45C436.12,1012.03 436.883,1008.64 437.645,1005.28C438.408,1001.91 439.139,998.522 439.838,995.104C441.427,987.346 442.221,969.908 442.221,963.94C442.221,958.081 441.649,953.198 440.505,949.292C439.997,947.718 439.25,945.792 438.265,943.514C437.28,941.235 435.993,938.604 434.404,935.62C431.29,929.76 429.733,921.948 429.733,912.182C429.733,909.307 430.209,904.478 431.163,897.697C432.116,890.915 433.578,882.099 435.548,871.248C445.018,875.588 454.9,877.758 465.196,877.758C476.7,877.758 486.551,874.992 494.749,869.458C498.563,868.427 502.853,867.911 507.619,867.911C518.741,867.911 527.671,870.136 534.408,874.585C541.907,879.522 545.657,886.575 545.657,895.744C545.657,896.72 545.562,898.185 545.371,900.138C545.18,902.037 545.085,903.475 545.085,904.451C545.085,911.45 547.945,921.405 553.665,934.318C559.448,947.176 562.34,957.077 562.34,964.021ZM512.958,961.661C512.958,954.12 511.528,947.04 508.668,940.421C507.397,938.414 505.935,935.864 504.283,932.771C502.63,929.679 500.819,926.017 498.849,921.785C497.641,917.716 497.037,913.105 497.037,907.951C497.037,907.028 497.101,905.889 497.228,904.533C497.355,903.176 497.546,901.603 497.8,899.813C498.054,898.022 498.245,896.462 498.372,895.133C498.499,893.804 498.563,892.678 498.563,891.756C498.563,890.345 497.8,888.853 496.275,887.28C495.83,887.063 495.321,886.954 494.749,886.954C493.923,886.954 491.699,887.66 488.076,889.07C483.945,890.644 481.466,891.539 480.64,891.756C478.543,899.677 477.494,906.784 477.494,913.077C477.494,918.991 478.416,924.606 480.259,929.923C481.149,932.419 483.182,936.081 486.36,940.91C489.22,945.358 491.063,949.075 491.889,952.059C492.843,955.748 493.319,959.708 493.319,963.94C493.319,970.125 492.175,988.133 489.887,996.813C498.722,995.457 504.823,992.907 508.191,989.163C511.369,985.637 512.958,969.42 512.958,961.661Z" style="fill-rule:nonzero;"/></g><path d="M562.34,964.021C562.34,970.206 561.609,984.959 560.148,987.129C556.652,992.229 548.708,996.298 536.314,999.336C528.179,1001.24 520.696,1003.3 513.864,1005.52C507.031,1007.75 500.724,1010.11 494.94,1012.6C490.936,1012.82 483.818,1013.88 473.586,1015.77C464.624,1017.4 457.506,1018.22 452.231,1018.22C445.939,1018.22 440.314,1017.29 435.357,1015.45C436.12,1012.03 436.883,1008.64 437.645,1005.28C438.408,1001.91 439.139,998.522 439.838,995.104C441.427,987.346 442.221,969.908 442.221,963.94C442.221,958.081 441.649,953.198 440.505,949.292C439.997,947.718 439.25,945.792 438.265,943.514C437.28,941.235 435.993,938.604 434.404,935.62C431.29,929.76 429.733,921.948 429.733,912.182C429.733,909.307 430.209,904.478 431.163,897.697C432.116,890.915 433.578,882.099 435.548,871.248C445.018,875.588 454.9,877.758 465.196,877.758C476.7,877.758 486.551,874.992 494.749,869.458C498.563,868.427 502.853,867.911 507.619,867.911C518.741,867.911 527.671,870.136 534.408,874.585C541.907,879.522 545.657,886.575 545.657,895.744C545.657,896.72 545.562,898.185 545.371,900.138C545.18,902.037 545.085,903.475 545.085,904.451C545.085,911.45 547.945,921.405 553.665,934.318C559.448,947.176 562.34,957.077 562.34,964.021ZM512.958,961.661C512.958,954.12 511.528,947.04 508.668,940.421C507.397,938.414 505.935,935.864 504.283,932.771C502.63,929.679 500.819,926.017 498.849,921.785C497.641,917.716 497.037,913.105 497.037,907.951C497.037,907.028 497.101,905.889 497.228,904.533C497.355,903.176 497.546,901.603 497.8,899.813C498.054,898.022 498.245,896.462 498.372,895.133C498.499,893.804 498.563,892.678 498.563,891.756C498.563,890.345 497.8,888.853 496.275,887.28C495.83,887.063 495.321,886.954 494.749,886.954C493.923,886.954 491.699,887.66 488.076,889.07C483.945,890.644 481.466,891.539 480.64,891.756C478.543,899.677 477.494,906.784 477.494,913.077C477.494,918.991 478.416,924.606 480.259,929.923C481.149,932.419 483.182,936.081 486.36,940.91C489.22,945.358 491.063,949.075 491.889,952.059C492.843,955.748 493.319,959.708 493.319,963.94C493.319,970.125 492.175,988.133 489.887,996.813C498.722,995.457 504.823,992.907 508.191,989.163C511.369,985.637 512.958,969.42 512.958,961.661Z" style="fill-rule:nonzero;"/><path d="M703.718,967.684C703.718,972.241 702.034,986.315 698.666,988.756C696.06,990.655 692.215,992.256 687.13,993.558C685.033,993.992 682.936,994.453 680.839,994.941C678.741,995.43 676.644,995.891 674.547,996.325C656.942,1000.61 642.642,1006.66 631.647,1014.47C624.847,1019.36 617.474,1021.8 609.53,1021.8C599.679,1021.8 591.226,1018.05 584.171,1010.57C577.562,1003.46 574.257,995.62 574.257,987.048L574.257,985.013C574.257,984.145 574.289,972.594 574.352,971.508C574.416,970.423 574.463,969.46 574.495,968.619C574.527,967.779 574.543,967.087 574.543,966.544C574.543,956.182 573.145,946.525 570.348,937.573C569.141,933.829 567.615,927.997 565.772,920.076C565.009,915.193 564.628,909.198 564.628,902.091C564.628,897.263 567.266,893.492 572.541,890.779C572.859,890.617 574.304,890.101 576.878,889.233C579.452,888.365 583.123,887.144 587.889,885.571C591.957,883.998 597.009,882.085 603.047,879.834C609.085,877.582 616.203,874.937 624.402,871.899C625.228,871.628 626.213,871.302 627.357,870.923C628.501,870.543 629.867,870.054 631.456,869.458C632.346,869.024 633.474,868.481 634.841,867.83C636.207,867.179 637.812,866.42 639.655,865.551C644.231,863.707 648.807,862.785 653.383,862.785C665.013,862.785 672.926,867.884 677.121,878.084C678.455,881.339 679.123,887.307 679.123,895.988C679.123,896.964 679.154,897.941 679.218,898.917C679.281,899.894 679.377,900.843 679.504,901.766C675.691,900.898 671.718,900.464 667.587,900.464C655.003,900.464 642.96,904.126 631.456,911.45C631.329,910.528 631.218,909.605 631.123,908.683C631.027,907.761 630.98,906.838 630.98,905.916C630.98,905.156 631.027,904.248 631.123,903.19C631.218,902.132 631.393,900.898 631.647,899.487C631.901,898.076 632.076,896.842 632.171,895.784C632.267,894.726 632.314,893.845 632.314,893.139C632.314,891.783 631.71,890.264 630.503,888.582C629.55,888.311 628.66,888.175 627.834,888.175C624.402,888.175 620.747,889.993 616.87,893.628C612.994,897.263 611.055,902.959 611.055,910.717C611.055,919.29 612.803,926.994 616.298,933.829C616.743,934.806 618.936,938.007 622.876,943.432C627.071,949.292 629.168,957.538 629.168,968.172C629.168,968.931 629.121,969.854 629.025,970.939C628.93,972.024 628.819,983.874 628.692,985.339C628.565,986.749 628.469,987.997 628.406,989.082C628.342,990.167 628.31,991.062 628.31,991.768C628.31,993.666 629.423,995.077 631.647,995.999C632.982,995.999 634.856,995.348 637.272,994.046C643.055,990.899 646.868,976.825 648.711,972.973C650.11,970.098 650.809,965.459 650.809,959.057C650.809,958.135 650.761,957.172 650.666,956.168C650.57,955.165 650.459,954.147 650.332,953.117C655.417,951.597 660.787,950.838 666.443,950.838C678.392,950.838 690.531,953.876 702.86,959.952C703.432,961.743 703.718,964.32 703.718,967.684Z" style="fill-rule:nonzero;"/><g style="filter:url(#_Effect6);"><path d="M703.718,967.684C703.718,972.241 702.034,986.315 698.666,988.756C696.06,990.655 692.215,992.256 687.13,993.558C685.033,993.992 682.936,994.453 680.839,994.941C678.741,995.43 676.644,995.891 674.547,996.325C656.942,1000.61 642.642,1006.66 631.647,1014.47C624.847,1019.36 617.474,1021.8 609.53,1021.8C599.679,1021.8 591.226,1018.05 584.171,1010.57C577.562,1003.46 574.257,995.62 574.257,987.048L574.257,985.013C574.257,984.145 574.289,972.594 574.352,971.508C574.416,970.423 574.463,969.46 574.495,968.619C574.527,967.779 574.543,967.087 574.543,966.544C574.543,956.182 573.145,946.525 570.348,937.573C569.141,933.829 567.615,927.997 565.772,920.076C565.009,915.193 564.628,909.198 564.628,902.091C564.628,897.263 567.266,893.492 572.541,890.779C572.859,890.617 574.304,890.101 576.878,889.233C579.452,888.365 583.123,887.144 587.889,885.571C591.957,883.998 597.009,882.085 603.047,879.834C609.085,877.582 616.203,874.937 624.402,871.899C625.228,871.628 626.213,871.302 627.357,870.923C628.501,870.543 629.867,870.054 631.456,869.458C632.346,869.024 633.474,868.481 634.841,867.83C636.207,867.179 637.812,866.42 639.655,865.551C644.231,863.707 648.807,862.785 653.383,862.785C665.013,862.785 672.926,867.884 677.121,878.084C678.455,881.339 679.123,887.307 679.123,895.988C679.123,896.964 679.154,897.941 679.218,898.917C679.281,899.894 679.377,900.843 679.504,901.766C675.691,900.898 671.718,900.464 667.587,900.464C655.003,900.464 642.96,904.126 631.456,911.45C631.329,910.528 631.218,909.605 631.123,908.683C631.027,907.761 630.98,906.838 630.98,905.916C630.98,905.156 631.027,904.248 631.123,903.19C631.218,902.132 631.393,900.898 631.647,899.487C631.901,898.076 632.076,896.842 632.171,895.784C632.267,894.726 632.314,893.845 632.314,893.139C632.314,891.783 631.71,890.264 630.503,888.582C629.55,888.311 628.66,888.175 627.834,888.175C624.402,888.175 620.747,889.993 616.87,893.628C612.994,897.263 611.055,902.959 611.055,910.717C611.055,919.29 612.803,926.994 616.298,933.829C616.743,934.806 618.936,938.007 622.876,943.432C627.071,949.292 629.168,957.538 629.168,968.172C629.168,968.931 629.121,969.854 629.025,970.939C628.93,972.024 628.819,983.874 628.692,985.339C628.565,986.749 628.469,987.997 628.406,989.082C628.342,990.167 628.31,991.062 628.31,991.768C628.31,993.666 629.423,995.077 631.647,995.999C632.982,995.999 634.856,995.348 637.272,994.046C643.055,990.899 646.868,976.825 648.711,972.973C650.11,970.098 650.809,965.459 650.809,959.057C650.809,958.135 650.761,957.172 650.666,956.168C650.57,955.165 650.459,954.147 650.332,953.117C655.417,951.597 660.787,950.838 666.443,950.838C678.392,950.838 690.531,953.876 702.86,959.952C703.432,961.743 703.718,964.32 703.718,967.684Z" style="fill-rule:nonzero;"/></g><path d="M703.718,967.684C703.718,972.241 702.034,986.315 698.666,988.756C696.06,990.655 692.215,992.256 687.13,993.558C685.033,993.992 682.936,994.453 680.839,994.941C678.741,995.43 676.644,995.891 674.547,996.325C656.942,1000.61 642.642,1006.66 631.647,1014.47C624.847,1019.36 617.474,1021.8 609.53,1021.8C599.679,1021.8 591.226,1018.05 584.171,1010.57C577.562,1003.46 574.257,995.62 574.257,987.048L574.257,985.013C574.257,984.145 574.289,972.594 574.352,971.508C574.416,970.423 574.463,969.46 574.495,968.619C574.527,967.779 574.543,967.087 574.543,966.544C574.543,956.182 573.145,946.525 570.348,937.573C569.141,933.829 567.615,927.997 565.772,920.076C565.009,915.193 564.628,909.198 564.628,902.091C564.628,897.263 567.266,893.492 572.541,890.779C572.859,890.617 574.304,890.101 576.878,889.233C579.452,888.365 583.123,887.144 587.889,885.571C591.957,883.998 597.009,882.085 603.047,879.834C609.085,877.582 616.203,874.937 624.402,871.899C625.228,871.628 626.213,871.302 627.357,870.923C628.501,870.543 629.867,870.054 631.456,869.458C632.346,869.024 633.474,868.481 634.841,867.83C636.207,867.179 637.812,866.42 639.655,865.551C644.231,863.707 648.807,862.785 653.383,862.785C665.013,862.785 672.926,867.884 677.121,878.084C678.455,881.339 679.123,887.307 679.123,895.988C679.123,896.964 679.154,897.941 679.218,898.917C679.281,899.894 679.377,900.843 679.504,901.766C675.691,900.898 671.718,900.464 667.587,900.464C655.003,900.464 642.96,904.126 631.456,911.45C631.329,910.528 631.218,909.605 631.123,908.683C631.027,907.761 630.98,906.838 630.98,905.916C630.98,905.156 631.027,904.248 631.123,903.19C631.218,902.132 631.393,900.898 631.647,899.487C631.901,898.076 632.076,896.842 632.171,895.784C632.267,894.726 632.314,893.845 632.314,893.139C632.314,891.783 631.71,890.264 630.503,888.582C629.55,888.311 628.66,888.175 627.834,888.175C624.402,888.175 620.747,889.993 616.87,893.628C612.994,897.263 611.055,902.959 611.055,910.717C611.055,919.29 612.803,926.994 616.298,933.829C616.743,934.806 618.936,938.007 622.876,943.432C627.071,949.292 629.168,957.538 629.168,968.172C629.168,968.931 629.121,969.854 629.025,970.939C628.93,972.024 628.819,983.874 628.692,985.339C628.565,986.749 628.469,987.997 628.406,989.082C628.342,990.167 628.31,991.062 628.31,991.768C628.31,993.666 629.423,995.077 631.647,995.999C632.982,995.999 634.856,995.348 637.272,994.046C643.055,990.899 646.868,976.825 648.711,972.973C650.11,970.098 650.809,965.459 650.809,959.057C650.809,958.135 650.761,957.172 650.666,956.168C650.57,955.165 650.459,954.147 650.332,953.117C655.417,951.597 660.787,950.838 666.443,950.838C678.392,950.838 690.531,953.876 702.86,959.952C703.432,961.743 703.718,964.32 703.718,967.684Z" style="fill-rule:nonzero;"/><path d="M834.896,971.264C834.896,981.03 832.163,1000.28 826.697,1007.88C820.723,1005.33 814.145,1004.06 806.963,1004.06C798.574,1004.06 788.946,1005.82 778.078,1009.35C783.035,996.65 785.514,974.303 785.514,963.452C780.938,964.428 774.296,966.544 765.589,969.799C765.144,979.023 762.666,1001.02 758.153,1014.63C751.162,1015.61 744.012,1016.1 736.703,1016.1C727.551,1016.1 718.368,1015.31 709.152,1013.74C709.216,1011.3 709.565,1008.26 710.201,1004.63C710.837,1000.99 711.79,996.677 713.061,991.686C715.412,982.138 716.588,964.157 716.588,958.895C716.588,955.748 716.207,953.198 715.444,951.245C714.936,950.051 714.411,948.885 713.871,947.745C713.331,946.606 712.807,945.467 712.298,944.327C707.786,933.694 704.831,922.056 703.432,909.415C703.369,908.547 703.273,907.503 703.146,906.282C703.019,905.062 702.892,903.61 702.765,901.928C702.574,900.301 702.479,899.243 702.479,898.755C702.479,897.235 702.86,895.689 703.623,894.116C706.61,888.311 713.855,884.594 725.359,882.967C737.307,881.339 748.302,878.382 758.344,874.096C760.314,873.066 762.284,872.062 764.255,871.085C766.225,870.109 768.227,869.132 770.26,868.156C774.519,866.148 778.999,865.145 783.702,865.145C790.312,865.145 796.54,866.826 802.388,870.19C808.107,873.608 812.334,877.867 815.067,882.967C817.355,887.307 818.499,892.787 818.499,899.406C818.499,907.272 821.232,919.235 826.697,935.294C832.163,951.353 834.896,963.343 834.896,971.264ZM783.607,947.094C782.145,943.297 780.699,939.512 779.269,935.742C777.839,931.971 776.394,928.187 774.932,924.389C771.627,915.112 769.974,907.435 769.974,901.359C769.974,900.816 770.006,900.165 770.07,899.406C770.133,898.646 770.229,897.751 770.356,896.72C770.483,895.635 770.578,894.713 770.642,893.953C770.705,893.194 770.737,892.543 770.737,892C770.737,891.023 770.324,890.033 769.498,889.03C768.672,888.026 767.686,887.524 766.542,887.524C766.86,887.524 766.622,887.605 765.828,887.768C765.033,887.931 763.714,888.202 761.871,888.582C756.85,891.457 753.673,893.98 752.338,896.15C751.003,898.212 750.336,901.711 750.336,906.648C750.336,913.756 751.893,921.704 755.007,930.493C755.452,931.903 758.598,939.553 764.445,953.442C768.64,951.814 775.027,949.699 783.607,947.094Z" style="fill-rule:nonzero;"/><g style="filter:url(#_Effect7);"><path d="M834.896,971.264C834.896,981.03 832.163,1000.28 826.697,1007.88C820.723,1005.33 814.145,1004.06 806.963,1004.06C798.574,1004.06 788.946,1005.82 778.078,1009.35C783.035,996.65 785.514,974.303 785.514,963.452C780.938,964.428 774.296,966.544 765.589,969.799C765.144,979.023 762.666,1001.02 758.153,1014.63C751.162,1015.61 744.012,1016.1 736.703,1016.1C727.551,1016.1 718.368,1015.31 709.152,1013.74C709.216,1011.3 709.565,1008.26 710.201,1004.63C710.837,1000.99 711.79,996.677 713.061,991.686C715.412,982.138 716.588,964.157 716.588,958.895C716.588,955.748 716.207,953.198 715.444,951.245C714.936,950.051 714.411,948.885 713.871,947.745C713.331,946.606 712.807,945.467 712.298,944.327C707.786,933.694 704.831,922.056 703.432,909.415C703.369,908.547 703.273,907.503 703.146,906.282C703.019,905.062 702.892,903.61 702.765,901.928C702.574,900.301 702.479,899.243 702.479,898.755C702.479,897.235 702.86,895.689 703.623,894.116C706.61,888.311 713.855,884.594 725.359,882.967C737.307,881.339 748.302,878.382 758.344,874.096C760.314,873.066 762.284,872.062 764.255,871.085C766.225,870.109 768.227,869.132 770.26,868.156C774.519,866.148 778.999,865.145 783.702,865.145C790.312,865.145 796.54,866.826 802.388,870.19C808.107,873.608 812.334,877.867 815.067,882.967C817.355,887.307 818.499,892.787 818.499,899.406C818.499,907.272 821.232,919.235 826.697,935.294C832.163,951.353 834.896,963.343 834.896,971.264ZM783.607,947.094C782.145,943.297 780.699,939.512 779.269,935.742C777.839,931.971 776.394,928.187 774.932,924.389C771.627,915.112 769.974,907.435 769.974,901.359C769.974,900.816 770.006,900.165 770.07,899.406C770.133,898.646 770.229,897.751 770.356,896.72C770.483,895.635 770.578,894.713 770.642,893.953C770.705,893.194 770.737,892.543 770.737,892C770.737,891.023 770.324,890.033 769.498,889.03C768.672,888.026 767.686,887.524 766.542,887.524C766.86,887.524 766.622,887.605 765.828,887.768C765.033,887.931 763.714,888.202 761.871,888.582C756.85,891.457 753.673,893.98 752.338,896.15C751.003,898.212 750.336,901.711 750.336,906.648C750.336,913.756 751.893,921.704 755.007,930.493C755.452,931.903 758.598,939.553 764.445,953.442C768.64,951.814 775.027,949.699 783.607,947.094Z" style="fill-rule:nonzero;"/></g><path d="M834.896,971.264C834.896,981.03 832.163,1000.28 826.697,1007.88C820.723,1005.33 814.145,1004.06 806.963,1004.06C798.574,1004.06 788.946,1005.82 778.078,1009.35C783.035,996.65 785.514,974.303 785.514,963.452C780.938,964.428 774.296,966.544 765.589,969.799C765.144,979.023 762.666,1001.02 758.153,1014.63C751.162,1015.61 744.012,1016.1 736.703,1016.1C727.551,1016.1 718.368,1015.31 709.152,1013.74C709.216,1011.3 709.565,1008.26 710.201,1004.63C710.837,1000.99 711.79,996.677 713.061,991.686C715.412,982.138 716.588,964.157 716.588,958.895C716.588,955.748 716.207,953.198 715.444,951.245C714.936,950.051 714.411,948.885 713.871,947.745C713.331,946.606 712.807,945.467 712.298,944.327C707.786,933.694 704.831,922.056 703.432,909.415C703.369,908.547 703.273,907.503 703.146,906.282C703.019,905.062 702.892,903.61 702.765,901.928C702.574,900.301 702.479,899.243 702.479,898.755C702.479,897.235 702.86,895.689 703.623,894.116C706.61,888.311 713.855,884.594 725.359,882.967C737.307,881.339 748.302,878.382 758.344,874.096C760.314,873.066 762.284,872.062 764.255,871.085C766.225,870.109 768.227,869.132 770.26,868.156C774.519,866.148 778.999,865.145 783.702,865.145C790.312,865.145 796.54,866.826 802.388,870.19C808.107,873.608 812.334,877.867 815.067,882.967C817.355,887.307 818.499,892.787 818.499,899.406C818.499,907.272 821.232,919.235 826.697,935.294C832.163,951.353 834.896,963.343 834.896,971.264ZM783.607,947.094C782.145,943.297 780.699,939.512 779.269,935.742C777.839,931.971 776.394,928.187 774.932,924.389C771.627,915.112 769.974,907.435 769.974,901.359C769.974,900.816 770.006,900.165 770.07,899.406C770.133,898.646 770.229,897.751 770.356,896.72C770.483,895.635 770.578,894.713 770.642,893.953C770.705,893.194 770.737,892.543 770.737,892C770.737,891.023 770.324,890.033 769.498,889.03C768.672,888.026 767.686,887.524 766.542,887.524C766.86,887.524 766.622,887.605 765.828,887.768C765.033,887.931 763.714,888.202 761.871,888.582C756.85,891.457 753.673,893.98 752.338,896.15C751.003,898.212 750.336,901.711 750.336,906.648C750.336,913.756 751.893,921.704 755.007,930.493C755.452,931.903 758.598,939.553 764.445,953.442C768.64,951.814 775.027,949.699 783.607,947.094Z" style="fill-rule:nonzero;"/><path d="M958.733,868.807C954.538,871.845 951.424,875.887 949.39,880.932C944.56,879.196 939.253,878.328 933.47,878.328C927.941,878.328 922.03,879.088 915.738,880.607C914.022,884.784 913.164,889.179 913.164,893.79C913.164,901.223 915.833,911.314 921.172,924.064C921.871,925.637 922.618,927.59 923.412,929.923C924.207,932.256 925.112,935.05 926.129,938.305C926.638,940.91 927.035,944.029 927.321,947.664C927.607,951.299 927.75,955.477 927.75,960.197C927.75,971.97 926.701,993.911 924.604,1004.87C922.761,1005.3 920.822,1005.81 918.789,1006.38C916.755,1006.95 914.658,1007.53 912.497,1008.12C909.192,1008.88 904.552,1010.19 898.578,1012.03C898.26,1012.14 897.641,1012.41 896.719,1012.85C895.798,1013.28 894.574,1013.88 893.049,1014.63C885.804,1018.33 879.766,1020.55 874.936,1021.31C875.444,1014.36 875.841,1007.77 876.127,1001.53C876.413,995.294 876.556,978.751 876.556,973.055C876.556,970.885 876.509,968.362 876.413,965.486C876.318,962.611 876.207,959.329 876.08,955.639C876.08,954.717 876.032,953.578 875.937,952.221C875.841,950.865 875.73,949.265 875.603,947.42C875.285,945.575 873.855,940.774 871.313,933.016C867.182,920.537 865.116,910.446 865.116,902.742C865.116,897.642 865.815,893.031 867.214,888.908C865.815,889.016 864.417,889.097 863.019,889.152C861.621,889.206 860.191,889.233 858.729,889.233C849.386,889.233 841.22,887.904 834.229,885.245C835.754,879.657 838.01,874.72 840.997,870.434C846.399,871.357 852.024,871.818 857.871,871.818C861.684,871.818 865.99,871.601 870.789,871.167C875.587,870.733 880.973,870.082 886.948,869.214C890.761,868.78 896.354,867.966 903.726,866.772C906.141,866.23 908.588,865.714 911.067,865.226C913.545,864.738 915.992,864.222 918.407,863.68C921.267,863.137 923.937,862.73 926.415,862.459C928.894,862.188 931.245,862.052 933.47,862.052C943.511,862.052 951.933,864.304 958.733,868.807Z" style="fill-rule:nonzero;"/><g style="filter:url(#_Effect8);"><path d="M958.733,868.807C954.538,871.845 951.424,875.887 949.39,880.932C944.56,879.196 939.253,878.328 933.47,878.328C927.941,878.328 922.03,879.088 915.738,880.607C914.022,884.784 913.164,889.179 913.164,893.79C913.164,901.223 915.833,911.314 921.172,924.064C921.871,925.637 922.618,927.59 923.412,929.923C924.207,932.256 925.112,935.05 926.129,938.305C926.638,940.91 927.035,944.029 927.321,947.664C927.607,951.299 927.75,955.477 927.75,960.197C927.75,971.97 926.701,993.911 924.604,1004.87C922.761,1005.3 920.822,1005.81 918.789,1006.38C916.755,1006.95 914.658,1007.53 912.497,1008.12C909.192,1008.88 904.552,1010.19 898.578,1012.03C898.26,1012.14 897.641,1012.41 896.719,1012.85C895.798,1013.28 894.574,1013.88 893.049,1014.63C885.804,1018.33 879.766,1020.55 874.936,1021.31C875.444,1014.36 875.841,1007.77 876.127,1001.53C876.413,995.294 876.556,978.751 876.556,973.055C876.556,970.885 876.509,968.362 876.413,965.486C876.318,962.611 876.207,959.329 876.08,955.639C876.08,954.717 876.032,953.578 875.937,952.221C875.841,950.865 875.73,949.265 875.603,947.42C875.285,945.575 873.855,940.774 871.313,933.016C867.182,920.537 865.116,910.446 865.116,902.742C865.116,897.642 865.815,893.031 867.214,888.908C865.815,889.016 864.417,889.097 863.019,889.152C861.621,889.206 860.191,889.233 858.729,889.233C849.386,889.233 841.22,887.904 834.229,885.245C835.754,879.657 838.01,874.72 840.997,870.434C846.399,871.357 852.024,871.818 857.871,871.818C861.684,871.818 865.99,871.601 870.789,871.167C875.587,870.733 880.973,870.082 886.948,869.214C890.761,868.78 896.354,867.966 903.726,866.772C906.141,866.23 908.588,865.714 911.067,865.226C913.545,864.738 915.992,864.222 918.407,863.68C921.267,863.137 923.937,862.73 926.415,862.459C928.894,862.188 931.245,862.052 933.47,862.052C943.511,862.052 951.933,864.304 958.733,868.807Z" style="fill-rule:nonzero;"/></g><path d="M958.733,868.807C954.538,871.845 951.424,875.887 949.39,880.932C944.56,879.196 939.253,878.328 933.47,878.328C927.941,878.328 922.03,879.088 915.738,880.607C914.022,884.784 913.164,889.179 913.164,893.79C913.164,901.223 915.833,911.314 921.172,924.064C921.871,925.637 922.618,927.59 923.412,929.923C924.207,932.256 925.112,935.05 926.129,938.305C926.638,940.91 927.035,944.029 927.321,947.664C927.607,951.299 927.75,955.477 927.75,960.197C927.75,971.97 926.701,993.911 924.604,1004.87C922.761,1005.3 920.822,1005.81 918.789,1006.38C916.755,1006.95 914.658,1007.53 912.497,1008.12C909.192,1008.88 904.552,1010.19 898.578,1012.03C898.26,1012.14 897.641,1012.41 896.719,1012.85C895.798,1013.28 894.574,1013.88 893.049,1014.63C885.804,1018.33 879.766,1020.55 874.936,1021.31C875.444,1014.36 875.841,1007.77 876.127,1001.53C876.413,995.294 876.556,978.751 876.556,973.055C876.556,970.885 876.509,968.362 876.413,965.486C876.318,962.611 876.207,959.329 876.08,955.639C876.08,954.717 876.032,953.578 875.937,952.221C875.841,950.865 875.73,949.265 875.603,947.42C875.285,945.575 873.855,940.774 871.313,933.016C867.182,920.537 865.116,910.446 865.116,902.742C865.116,897.642 865.815,893.031 867.214,888.908C865.815,889.016 864.417,889.097 863.019,889.152C861.621,889.206 860.191,889.233 858.729,889.233C849.386,889.233 841.22,887.904 834.229,885.245C835.754,879.657 838.01,874.72 840.997,870.434C846.399,871.357 852.024,871.818 857.871,871.818C861.684,871.818 865.99,871.601 870.789,871.167C875.587,870.733 880.973,870.082 886.948,869.214C890.761,868.78 896.354,867.966 903.726,866.772C906.141,866.23 908.588,865.714 911.067,865.226C913.545,864.738 915.992,864.222 918.407,863.68C921.267,863.137 923.937,862.73 926.415,862.459C928.894,862.188 931.245,862.052 933.47,862.052C943.511,862.052 951.933,864.304 958.733,868.807Z" style="fill-rule:nonzero;"/></g></g><g id="ACID-CAT-TEXT" serif:id="ACID CAT TEXT"></g><g id="EYES"><path d="M423.863,404.301C423.863,437.221 408.791,463.948 390.226,463.948C371.662,463.948 356.59,437.221 356.59,404.301C356.59,371.381 371.662,344.654 390.226,344.654C408.791,344.654 423.863,371.381 423.863,404.301Z" style="stroke:#000;stroke-width:12.92px;"/><path d="M671.136,404.301C671.136,437.221 656.064,463.948 637.5,463.948C618.935,463.948 603.863,437.221 603.863,404.301C603.863,371.381 618.935,344.654 637.5,344.654C656.064,344.654 671.136,371.381 671.136,404.301Z" style="stroke:#000;stroke-width:12.92px;"/></g><g id="EARS"><path d="M415.984,195.099C311.562,229.293 243.317,302.809 235.648,322.228C220.176,361.407 228.838,245.679 247.34,179.406C262.614,124.692 294.252,58.911 323.385,38.811C356.651,15.859 352.364,52.886 415.984,195.099Z" style="fill:#fd0;stroke:#000;stroke-width:8.55px;"/><path d="M606.517,195.099C710.939,229.293 779.185,302.809 786.854,322.228C802.326,361.407 793.663,245.679 775.162,179.406C759.887,124.692 728.249,58.911 699.116,38.811C665.851,15.859 670.138,52.886 606.517,195.099Z" style="fill:#fd0;stroke:#000;stroke-width:8.55px;"/></g><g id="left-whiskers" serif:id="left whiskers"><path d="M297.253,492.344C260.415,492.344 260.882,487.523 224.321,490.934C217.228,491.596 199.702,485.413 117.571,483.038" style="stroke:#000;stroke-width:4.08px;"/><path d="M275.57,527.594C260.504,533.469 117.624,547.398 103.821,548.744" style="stroke:#000;stroke-width:4.08px;"/><path d="M297.253,558.614C286.707,573.7 139.079,618.523 135.619,623.473" style="stroke:#000;stroke-width:4.08px;"/></g><g id="right-whiskers" serif:id="right whiskers"><path d="M742.972,489.26C751.802,484.111 800.17,489.199 887.343,483.038" style="stroke:#000;stroke-width:4.08px;"/><path d="M742.972,519.286C823.304,536.141 897.321,539.799 910.404,540.486" style="stroke:#000;stroke-width:4.08px;"/><path d="M720.237,548.515C793.307,579.809 778.028,570.138 811.009,583.765C855.568,602.175 880.985,612.613 887.34,614.784" style="stroke:#000;stroke-width:4.08px;"/></g><g id="Layer1"></g><g id="THE-MOUTH" serif:id="THE MOUTH"><path d="M290.07,614.784C429.191,779.484 576.801,782.353 733.93,614.784" style="fill:none;stroke:#000;stroke-width:11.25px;"/></g><path d="M722.425,604.172C734.626,614.513 749.045,616.372 749.045,616.372" style="fill:none;stroke:#000;stroke-width:10.31px;"/><path d="M303.38,604.172C291.179,614.513 276.76,616.372 276.76,616.372" style="fill:none;stroke:#000;stroke-width:10.31px;"/></g><defs><filter id="_Effect2" filterUnits="userSpaceOnUse" x="27.8397" y="805.686" width="251.334" height="269.872"><feGaussianBlur in="SourceGraphic" stdDeviation="19.8194"/></filter><filter id="_Effect3" filterUnits="userSpaceOnUse" x="163.403" y="803.326" width="258.007" height="277.929"><feGaussianBlur in="SourceGraphic" stdDeviation="19.8194"/></filter><filter id="_Effect4" filterUnits="userSpaceOnUse" x="305.162" y="801.373" width="173.161" height="276.301"><feGaussianBlur in="SourceGraphic" stdDeviation="19.8194"/></filter><filter id="_Effect5" filterUnits="userSpaceOnUse" x="370.274" y="808.453" width="251.524" height="269.221"><feGaussianBlur in="SourceGraphic" stdDeviation="19.8194"/></filter><filter id="_Effect6" filterUnits="userSpaceOnUse" x="505.17" y="803.326" width="258.007" height="277.929"><feGaussianBlur in="SourceGraphic" stdDeviation="19.8194"/></filter><filter id="_Effect7" filterUnits="userSpaceOnUse" x="643.021" y="805.686" width="251.334" height="269.872"><feGaussianBlur in="SourceGraphic" stdDeviation="19.8194"/></filter><filter id="_Effect8" filterUnits="userSpaceOnUse" x="774.77" y="802.594" width="243.421" height="278.173"><feGaussianBlur in="SourceGraphic" stdDeviation="19.8194"/></filter></defs></svg>